<svg width="652" height="287" viewBox="0 0 652 287" fill="none" xmlns="http://www.w3.org/2000/svg">
<path d="M124.466 198.54L10.1699 259.338L31.3312 272.55L90.9936 272.081L125.151 253.191L111.254 242.953L134.614 227.938L132.235 219.413L140.346 211.716L141.535 207.877L124.466 198.54Z" fill="#F4F4F4"/>
<path d="M122.233 150.341L95.8984 139.274L107.326 133.254L133.661 144.321L122.233 150.341Z" fill="white" stroke="#A4BBB7" stroke-width="1.80249" stroke-linejoin="round"/>
<path d="M99.7725 222.333L73.4381 211.265L72.627 181.759L98.9613 192.808L99.7725 222.333Z" fill="#FAFAFA" stroke="#A4BBB7" stroke-width="1.80249" stroke-linejoin="round"/>
<path d="M96.6328 109.533L70.3164 98.4835L94.3977 85.794L120.732 96.8432L96.6328 109.533Z" fill="white" stroke="#A4BBB7" stroke-width="1.80249" stroke-linejoin="round"/>
<path d="M98.1288 163.031L71.7944 151.981L70.3164 98.4835L96.6328 109.533L98.1288 163.031Z" fill="#FAFAFA" stroke="#A4BBB7" stroke-width="1.80249" stroke-linejoin="round"/>
<path d="M63.9394 181.038L37.623 169.988L71.7983 151.981L98.1326 163.031L63.9394 181.038Z" fill="white" stroke="#A4BBB7" stroke-width="1.80249" stroke-linejoin="round"/>
<path d="M37.0079 225.451L10.6915 214.402L9.89844 186.211L36.2328 197.26L37.0079 225.451Z" fill="#FAFAFA" stroke="#A4BBB7" stroke-width="1.80249" stroke-linejoin="round"/>
<path d="M106.8 24.2569L63.9367 181.038L98.1299 163.031L96.6339 109.533L120.733 96.8432L122.229 150.341L133.657 144.321L134.468 174.08L123.04 180.118L123.869 209.625L99.7702 222.333L98.9591 192.808L37.0075 225.451L36.2324 197.26L80.2673 38.2262L106.8 24.2569Z" fill="#FAFAFA" stroke="#A4BBB7" stroke-width="1.80249" stroke-linejoin="round"/>
<path d="M36.2328 197.26L9.89844 186.211L53.9513 27.177L80.2677 38.2262L36.2328 197.26Z" fill="#FAFAFA" stroke="#A4BBB7" stroke-width="1.80249" stroke-linejoin="round"/>
<path d="M80.2675 38.2262L53.9512 27.177L80.4838 13.1896L106.8 24.2569L80.2675 38.2262Z" fill="white" stroke="#A4BBB7" stroke-width="1.80249" stroke-linejoin="round"/>
<path d="M500.71 189.336L500.749 198.337L553.111 247.84L593.664 269.032L636.52 239.864L522.071 177.028L500.71 189.336Z" fill="#F4F4F4"/>
<path d="M531.105 142.699L555.403 129.378L592.354 148.214L568.057 161.553L531.105 142.699Z" fill="white" stroke="#A4BBB7" stroke-width="1.80249" stroke-linejoin="round"/>
<path d="M592.987 203.533L617.267 190.212L616.149 218.656L591.852 231.994L592.987 203.533Z" fill="#FAFAFA" stroke="#A4BBB7" stroke-width="1.80249" stroke-linejoin="round"/>
<path d="M606.47 181.146L630.749 167.807L629.614 196.503L605.334 209.841L606.47 181.146Z" fill="#FAFAFA" stroke="#A4BBB7" stroke-width="1.80249" stroke-linejoin="round"/>
<path d="M594.123 174.837L618.403 161.499L630.75 167.807L606.47 181.146L594.123 174.837Z" fill="white" stroke="#A4BBB7" stroke-width="1.80249" stroke-linejoin="round"/>
<path d="M570.111 109.983L594.391 96.663L620.455 109.929L596.157 123.268L570.111 109.983Z" fill="white" stroke="#A4BBB7" stroke-width="1.80249" stroke-linejoin="round"/>
<path d="M596.16 123.268L620.457 109.929L618.403 161.499L594.123 174.837L596.16 123.268Z" fill="#FAFAFA" stroke="#A4BBB7" stroke-width="1.80249" stroke-linejoin="round"/>
<path d="M586.479 40.8579L531.106 142.699L568.058 161.553L570.112 109.983L596.158 123.268L594.122 174.837L606.469 181.146L605.333 209.841L592.986 203.533L591.85 231.994L565.804 218.692L566.922 190.248L499.941 156.091L501.041 128.928L557.783 26.2397L586.479 40.8579Z" fill="#FAFAFA" stroke="#A4BBB7" stroke-width="1.80249" stroke-linejoin="round"/>
<path d="M586.478 40.8579L610.776 27.5194L555.403 129.378L531.105 142.699L586.478 40.8579Z" fill="#FAFAFA" stroke="#A4BBB7" stroke-width="1.80249" stroke-linejoin="round"/>
<path d="M557.785 26.2397L582.083 12.9012L610.778 27.5194L586.481 40.8579L557.785 26.2397Z" fill="white" stroke="#A4BBB7" stroke-width="1.80249" stroke-linejoin="round"/>
<path d="M385.234 88.0471C385.414 84.2438 382.53 80.3865 376.564 76.5111C375.735 75.9704 374.924 75.4657 374.076 75.0151C373.41 74.6365 372.743 74.2941 372.058 73.9696C371.841 73.8615 371.643 73.7714 371.427 73.6812C371.138 73.537 370.832 73.3928 370.544 73.2667C370.435 73.2306 370.345 73.1946 370.237 73.1585C369.228 72.7259 368.2 72.3294 367.173 71.9869C367.119 71.9869 367.083 71.9508 367.029 71.9328C366.812 71.8607 366.596 71.8247 366.38 71.7526C365.839 71.5903 365.28 71.4281 364.74 71.3019C364.631 71.2839 364.523 71.2298 364.415 71.2118C364.145 71.1577 363.892 71.1037 363.622 71.0496C363.244 70.9775 362.865 70.8874 362.504 70.8333C362.378 70.8153 362.27 70.7792 362.144 70.7612C361.838 70.7071 361.531 70.6891 361.243 70.635C360.918 70.599 360.612 70.5449 360.287 70.5088C360.197 70.5088 360.089 70.4728 359.999 70.4728C359.657 70.4367 359.314 70.4367 358.954 70.4007C358.647 70.3827 358.341 70.3466 358.016 70.3466C357.944 70.3466 357.872 70.3466 357.818 70.3466C357.169 70.3286 356.52 70.3286 355.871 70.3466C355.709 70.3466 355.529 70.3466 355.367 70.3466C355.15 70.3466 354.916 70.3827 354.7 70.4007C353.979 70.4367 353.24 70.4908 352.519 70.5809C352.356 70.5809 352.194 70.599 352.032 70.617C351.78 70.653 351.509 70.7071 351.257 70.7432C350.788 70.8153 350.32 70.8693 349.869 70.9595C349.418 71.0316 348.968 71.1217 348.517 71.2118C348.049 71.3019 347.58 71.4101 347.111 71.5182C346.913 71.5723 346.697 71.6084 346.498 71.6624C346.282 71.7165 346.066 71.7886 345.831 71.8607C345.237 72.0229 344.642 72.2032 344.047 72.3834C343.65 72.5096 343.236 72.6358 342.821 72.78C342.208 72.9963 341.596 73.2126 340.965 73.4469C340.568 73.5911 340.19 73.7353 339.793 73.8975C339.108 74.1679 338.423 74.4743 337.756 74.7807C337.432 74.9249 337.089 75.0691 336.765 75.2314C335.756 75.718 334.728 76.2227 333.701 76.7815L269.983 111.191C268.973 111.732 268.018 112.291 267.135 112.831C267.081 112.867 267.027 112.885 266.991 112.921C266.306 113.336 265.675 113.751 265.08 114.183C264.918 114.291 264.773 114.399 264.611 114.508C264.089 114.886 263.584 115.265 263.115 115.625C262.971 115.733 262.827 115.841 262.701 115.95C262.196 116.364 261.691 116.797 261.259 117.211C261.223 117.247 261.186 117.283 261.15 117.32C261.042 117.428 260.934 117.536 260.826 117.644C260.466 118.004 260.123 118.383 259.799 118.743C259.672 118.888 259.546 119.05 259.42 119.194C259.312 119.32 259.186 119.464 259.096 119.591C258.861 119.897 258.645 120.204 258.465 120.51C258.465 120.51 258.465 120.546 258.447 120.546C258.266 120.834 258.104 121.105 257.96 121.393C257.906 121.501 257.87 121.627 257.816 121.736C257.69 122.006 257.582 122.258 257.491 122.529C257.437 122.673 257.347 122.817 257.311 122.961C257.239 123.196 257.167 123.43 257.131 123.646C257.077 123.881 257.041 124.097 257.005 124.331C256.987 124.529 256.969 124.71 256.951 124.908L255.238 161.12C255.256 160.705 255.31 160.273 255.419 159.858C255.509 159.48 255.653 159.101 255.797 158.723C255.887 158.452 255.995 158.2 256.122 157.93C256.302 157.533 256.5 157.137 256.752 156.74C256.752 156.74 256.752 156.704 256.788 156.686C257.059 156.253 257.401 155.803 257.744 155.37C257.87 155.226 257.978 155.064 258.122 154.919C258.429 154.559 258.789 154.18 259.15 153.82C259.258 153.712 259.348 153.604 259.456 153.495C259.925 153.045 260.447 152.576 261.006 152.126C261.132 152.017 261.295 151.909 261.421 151.801C261.889 151.423 262.394 151.044 262.917 150.684C263.079 150.575 263.223 150.467 263.386 150.359C264.034 149.909 264.719 149.458 265.458 149.025C266.36 148.485 267.297 147.926 268.306 147.385L332.024 112.976C333.052 112.417 334.061 111.912 335.089 111.425C335.413 111.263 335.756 111.137 336.08 110.975C336.765 110.668 337.45 110.362 338.135 110.092C338.531 109.929 338.91 109.785 339.306 109.641C339.919 109.407 340.532 109.172 341.163 108.974C341.578 108.83 341.974 108.704 342.389 108.577C342.984 108.397 343.578 108.217 344.173 108.055C344.606 107.947 345.02 107.82 345.453 107.73C345.922 107.622 346.39 107.514 346.859 107.424C347.31 107.334 347.76 107.244 348.211 107.171C348.679 107.081 349.148 107.027 349.617 106.955C350.031 106.901 350.446 106.847 350.86 106.793C351.599 106.721 352.32 106.667 353.059 106.613C353.456 106.595 353.853 106.559 354.231 106.541C354.952 106.541 355.673 106.541 356.376 106.559C356.682 106.559 357.007 106.595 357.313 106.613C357.746 106.649 358.197 106.667 358.629 106.721C358.954 106.757 359.26 106.811 359.584 106.847C359.999 106.901 360.432 106.955 360.846 107.027C361.225 107.099 361.585 107.171 361.964 107.244C362.342 107.316 362.703 107.406 363.081 107.496C363.64 107.64 364.181 107.784 364.722 107.947C364.974 108.019 365.244 108.091 365.497 108.181C366.524 108.523 367.551 108.902 368.561 109.353C368.957 109.515 369.354 109.695 369.75 109.875C369.967 109.965 370.183 110.074 370.381 110.164C371.048 110.488 371.733 110.849 372.4 111.209C373.229 111.678 374.058 112.182 374.888 112.705C378.619 115.139 381.142 117.554 382.458 119.951C383.251 121.393 383.612 122.817 383.558 124.241L385.27 88.0291L385.234 88.0471Z" fill="#FAFAFA" stroke="#A4BBB7" stroke-width="1.80249" stroke-linejoin="round"/>
<path d="M420.539 189.459C420.1 198.52 412.734 206.763 398.46 214.151L326.543 251.465C312.341 258.837 297.578 262.054 282.27 261.115C269.105 260.319 256.372 256.322 244.088 249.16C242.106 247.992 240.126 246.751 238.147 245.42C223.956 235.847 217.134 226.521 217.627 217.426C218.139 208.33 225.468 200.105 239.615 192.786L311.532 155.473C325.733 148.101 340.497 144.884 355.805 145.823C368.97 146.618 381.703 150.615 393.987 157.796C395.969 158.946 397.949 160.205 399.91 161.517C414.101 171.091 420.959 180.399 420.521 189.459L420.539 189.459ZM370.199 199.639C377.891 195.657 382.25 191.565 383.275 187.363C384.3 183.162 381.523 178.861 374.98 174.444C374.16 173.89 373.357 173.372 372.518 172.907C366.715 169.53 360.685 167.862 354.411 167.902C347.253 167.963 339.829 169.967 332.137 173.968L267.857 207.316C260.165 211.299 255.807 215.391 254.782 219.592C253.757 223.794 256.516 228.094 263.058 232.511C263.878 233.065 264.681 233.584 265.521 234.048C271.324 237.425 277.353 239.112 283.645 239.054C290.803 238.992 298.228 236.97 305.92 232.988L370.199 199.639Z" fill="#F4F4F4"/>
<path d="M422.345 90.7869C422.327 91.3637 422.273 91.9224 422.201 92.4812C422.129 93.022 422.039 93.5627 421.913 94.1034C421.877 94.2837 421.823 94.4459 421.768 94.6262C421.678 94.9867 421.588 95.3472 421.462 95.7077C421.39 95.942 421.3 96.1763 421.21 96.4106C421.102 96.7171 420.993 97.0235 420.867 97.3299C420.759 97.5642 420.651 97.7986 420.543 98.0509C420.399 98.3393 420.272 98.6277 420.128 98.9161C419.948 99.2586 419.732 99.6191 419.533 99.9615C419.407 100.178 419.299 100.376 419.155 100.592C418.902 101.007 418.614 101.404 418.326 101.8C418.218 101.944 418.127 102.088 418.019 102.233C417.551 102.864 417.01 103.494 416.451 104.125C416.289 104.306 416.127 104.486 415.964 104.666C415.532 105.135 415.081 105.603 414.595 106.072C414.396 106.27 414.198 106.45 414 106.649C413.621 107.009 413.207 107.37 412.792 107.712C412.558 107.911 412.341 108.109 412.107 108.307C411.584 108.74 411.026 109.172 410.467 109.605C410.323 109.713 410.196 109.821 410.034 109.929C409.313 110.47 408.556 111.011 407.781 111.534C407.565 111.678 407.312 111.84 407.096 111.984C406.519 112.363 405.943 112.741 405.33 113.12C404.843 113.426 404.338 113.715 403.834 114.021C403.581 114.165 403.347 114.309 403.095 114.472C402.302 114.922 401.508 115.373 400.661 115.823L329.373 154.325C327.66 155.244 325.948 156.091 324.236 156.902C323.659 157.173 323.1 157.389 322.523 157.641C321.37 158.146 320.198 158.669 319.045 159.119C318.36 159.39 317.657 159.606 316.972 159.858C315.908 160.237 314.863 160.633 313.781 160.958C313.042 161.192 312.285 161.39 311.546 161.607C310.519 161.895 309.509 162.184 308.482 162.436C307.707 162.616 306.932 162.778 306.157 162.941C305.147 163.157 304.138 163.373 303.129 163.553C302.335 163.698 301.542 163.806 300.749 163.914C299.578 164.076 298.406 164.238 297.216 164.365C296.91 164.401 296.604 164.437 296.279 164.455C294.639 164.599 292.981 164.689 291.322 164.743C291.088 164.743 290.836 164.743 290.601 164.743C288.835 164.779 287.068 164.761 285.284 164.689C283.734 164.617 282.202 164.509 280.669 164.346C279.57 164.238 278.47 164.076 277.371 163.914C276.794 163.824 276.217 163.77 275.641 163.68C273.91 163.391 272.18 163.049 270.449 162.652C269.043 162.328 267.656 161.949 266.268 161.553C265.925 161.463 265.583 161.354 265.24 161.246C264.249 160.94 263.257 160.615 262.266 160.273C261.635 160.057 261.022 159.858 260.391 159.624C259.454 159.282 258.517 158.903 257.598 158.524C257.021 158.29 256.444 158.074 255.867 157.821C254.858 157.389 253.848 156.902 252.839 156.434C252.352 156.199 251.848 155.983 251.361 155.731C249.865 154.992 248.369 154.198 246.891 153.369C244.89 152.234 242.889 151.026 240.889 149.728C232.813 144.483 227.081 139.256 223.675 134.083C221.025 130.063 219.763 126.044 219.926 122.078L218.213 158.29C217.871 167.393 224.846 176.603 239.194 185.94C241.177 187.238 243.178 188.446 245.196 189.581C246.675 190.41 248.171 191.204 249.667 191.943C250.153 192.195 250.658 192.411 251.145 192.646C252.01 193.06 252.857 193.475 253.722 193.853C253.866 193.925 254.029 193.979 254.173 194.034C254.75 194.286 255.326 194.502 255.903 194.736C256.841 195.115 257.76 195.494 258.697 195.836C259.328 196.07 259.941 196.269 260.572 196.485C261.131 196.683 261.707 196.899 262.266 197.08C262.681 197.206 263.113 197.332 263.528 197.458C263.87 197.566 264.213 197.657 264.555 197.765C265.889 198.161 267.241 198.522 268.593 198.828C268.647 198.828 268.701 198.846 268.737 198.864C270.467 199.261 272.18 199.603 273.928 199.892C273.982 199.892 274.018 199.91 274.072 199.928C274.595 200.018 275.136 200.054 275.659 200.144C276.758 200.306 277.858 200.468 278.957 200.577C279.047 200.577 279.155 200.613 279.246 200.613C280.688 200.757 282.13 200.865 283.572 200.919C283.896 200.919 284.238 200.955 284.563 200.955C286.005 201.009 287.447 201.009 288.889 200.973C289.123 200.973 289.376 200.973 289.61 200.973C289.88 200.973 290.169 200.973 290.439 200.973C291.827 200.919 293.197 200.829 294.567 200.703C294.873 200.667 295.198 200.649 295.504 200.613C296.063 200.559 296.64 200.504 297.198 200.45C297.811 200.378 298.406 200.252 299.019 200.162C299.812 200.054 300.623 199.928 301.416 199.801C302.426 199.621 303.435 199.405 304.444 199.189C305.219 199.026 305.994 198.864 306.77 198.684C307.022 198.63 307.274 198.576 307.527 198.522C308.302 198.323 309.059 198.071 309.834 197.855C310.573 197.638 311.33 197.44 312.069 197.206C313.132 196.863 314.178 196.485 315.241 196.106C315.926 195.854 316.629 195.62 317.314 195.367C318.468 194.917 319.639 194.412 320.793 193.907C321.37 193.655 321.947 193.439 322.523 193.168C324.254 192.375 325.966 191.51 327.66 190.591L398.949 152.09C399.778 151.639 400.589 151.188 401.382 150.738C401.635 150.593 401.887 150.431 402.139 150.287C402.554 150.053 402.968 149.8 403.365 149.566C403.455 149.512 403.527 149.458 403.617 149.404C404.23 149.025 404.825 148.647 405.402 148.25C405.618 148.106 405.852 147.962 406.087 147.8C406.862 147.259 407.619 146.736 408.34 146.195C408.484 146.087 408.61 145.979 408.754 145.871C409.331 145.438 409.872 145.006 410.395 144.555C410.629 144.357 410.845 144.159 411.062 143.978C411.476 143.618 411.873 143.257 412.269 142.897C412.359 142.825 412.45 142.735 412.54 142.663C412.666 142.554 412.756 142.446 412.864 142.32C413.351 141.851 413.801 141.383 414.234 140.914C414.396 140.734 414.577 140.554 414.721 140.373C415.279 139.743 415.802 139.112 416.289 138.481C416.289 138.481 416.289 138.463 416.307 138.445C416.415 138.319 416.487 138.174 416.595 138.03C416.884 137.634 417.172 137.219 417.424 136.822C417.551 136.606 417.677 136.408 417.803 136.192C418.001 135.849 418.218 135.507 418.398 135.146C418.416 135.092 418.452 135.038 418.488 135.002C418.614 134.768 418.704 134.515 418.83 134.281C418.939 134.047 419.065 133.812 419.155 133.578C419.281 133.272 419.389 132.965 419.497 132.659C419.587 132.424 419.678 132.19 419.75 131.974C419.75 131.938 419.768 131.902 419.786 131.866C419.894 131.541 419.966 131.199 420.056 130.874C420.092 130.712 420.146 130.532 420.2 130.37C420.326 129.829 420.417 129.288 420.489 128.747C420.561 128.189 420.615 127.612 420.633 127.053L422.345 90.8409V90.7869Z" fill="#FAFAFA" stroke="#A4BBB7" stroke-width="1.80249" stroke-linejoin="round"/>
<path d="M422.346 90.7868C422.057 99.8534 414.829 108.217 400.68 115.841L329.391 154.343C315.314 161.949 300.606 165.41 285.284 164.725C272.108 164.148 259.311 160.363 246.909 153.405C244.909 152.27 242.908 151.062 240.907 149.764C226.559 140.427 219.584 131.217 219.926 122.114C220.287 113.012 227.479 104.666 241.502 97.1136L312.79 58.6124C326.868 51.0059 341.576 47.5451 356.897 48.2301C370.074 48.8069 382.871 52.5921 395.272 59.5677C397.273 60.6853 399.274 61.911 401.257 63.1907C415.604 72.5276 422.616 81.7203 422.328 90.7868H422.346ZM372.182 101.8C379.807 97.6904 384.097 93.5266 385.052 89.3088C386.008 85.091 383.16 80.8371 376.544 76.5292C375.715 75.9884 374.904 75.4837 374.057 75.0331C368.199 71.7526 362.143 70.1844 355.87 70.3286C348.714 70.5088 341.324 72.6358 333.699 76.7635L269.981 111.173C262.357 115.283 258.067 119.446 257.111 123.664C256.156 127.882 258.986 132.136 265.601 136.444C266.43 136.985 267.241 137.489 268.089 137.94C273.947 141.221 280.003 142.807 286.294 142.645C293.45 142.464 300.84 140.319 308.464 136.21L372.182 101.8Z" fill="white" stroke="#A4BBB7" stroke-width="1.80249" stroke-linejoin="round"/>
</svg>
