<svg width="44" height="44" viewBox="0 0 44 44" fill="none" xmlns="http://www.w3.org/2000/svg">
<rect width="44" height="44" rx="22" fill="#F7F8F9"/>
<path d="M21.5048 22.0433C23.8437 22.0433 25.7379 19.9823 25.7379 17.4591C25.7379 14.9743 23.8437 13 21.5048 13C19.1757 13 17.2621 15.0032 17.2717 17.4783C17.2814 19.992 19.166 22.0433 21.5048 22.0433ZM21.5048 20.3579C20.1711 20.3579 19.0404 19.0963 19.0404 17.4783C19.0307 15.8989 20.1615 14.6854 21.5048 14.6854C22.8579 14.6854 23.9693 15.8796 23.9693 17.4591C23.9693 19.077 22.8482 20.3579 21.5048 20.3579ZM15.4741 31H27.5259C29.1978 31 30 30.4703 30 29.3339C30 26.6854 26.685 23.1605 21.5048 23.1605C16.3246 23.1605 13 26.6854 13 29.3339C13 30.4703 13.8022 31 15.4741 31ZM15.1745 29.3146C14.9426 29.3146 14.8556 29.2376 14.8556 29.0642C14.8556 27.5907 17.2428 24.8459 21.5048 24.8459C25.7572 24.8459 28.1444 27.5907 28.1444 29.0642C28.1444 29.2376 28.0574 29.3146 27.8255 29.3146H15.1745Z" fill="#949DA3"/>
</svg>
