<svg width="62" height="62" viewBox="0 0 62 62" fill="none" xmlns="http://www.w3.org/2000/svg">
<path d="M18.5101 27.1643C21.682 27.1643 24.2465 24.6182 24.2465 21.4692C24.2465 18.3368 21.682 15.7908 18.5101 15.7908C15.3551 15.7908 12.7905 18.3368 12.7905 21.4692C12.7905 24.6182 15.3551 27.1643 18.5101 27.1643ZM44.0541 27.1643C47.226 27.1643 49.7905 24.6182 49.7905 21.4692C49.7905 18.3368 47.226 15.7908 44.0541 15.7908C40.8991 15.7908 38.3345 18.3368 38.3345 21.4692C38.3345 24.6182 40.8991 27.1643 44.0541 27.1643ZM18.5101 24.0822C17.0422 24.0822 15.895 22.9264 15.895 21.4692C15.895 19.9951 17.0422 18.8561 18.5101 18.8561C20.0117 18.8561 21.159 19.9951 21.159 21.4692C21.159 22.9432 20.0117 24.0822 18.5101 24.0822ZM44.0541 24.0822C42.5862 24.0822 41.4221 22.9264 41.4221 21.4692C41.4221 19.9951 42.5862 18.8561 44.0541 18.8561C45.5557 18.8561 46.6861 19.9951 46.6861 21.4692C46.6861 22.9432 45.5557 24.0822 44.0541 24.0822ZM27.0304 23.0605C27.8234 23.0605 28.4814 22.3904 28.4814 21.5864C28.4814 20.8159 27.8234 20.1626 27.0304 20.1626C26.2205 20.1626 25.5625 20.8159 25.5625 21.5864C25.5625 22.4072 26.2205 23.0605 27.0304 23.0605ZM31.2652 23.0605C32.0582 23.0605 32.7331 22.3904 32.7331 21.5864C32.7331 20.8159 32.0582 20.1626 31.2652 20.1626C30.4722 20.1626 29.7974 20.8159 29.7974 21.5864C29.7974 22.3904 30.4722 23.0605 31.2652 23.0605ZM35.5338 23.0605C36.3437 23.0605 37.0017 22.4072 37.0017 21.5864C37.0017 20.8159 36.3437 20.1626 35.5338 20.1626C34.7408 20.1626 34.0828 20.8159 34.0828 21.5864C34.0828 22.3904 34.7408 23.0605 35.5338 23.0605ZM39.6674 30.6484C40.4773 30.6484 41.1353 29.9784 41.1353 29.1744C41.1353 28.4038 40.4773 27.7338 39.6674 27.7338C38.8744 27.7338 38.2164 28.4038 38.2164 29.1744C38.2164 29.9784 38.8744 30.6484 39.6674 30.6484ZM22.8968 30.6484C23.6898 30.6484 24.3478 29.9784 24.3478 29.1744C24.3478 28.4038 23.6898 27.7338 22.8968 27.7338C22.0869 27.7338 21.4289 28.4038 21.4289 29.1744C21.4289 29.9784 22.0869 30.6484 22.8968 30.6484ZM36.4786 34.1325C37.2885 34.1325 37.9465 33.4625 37.9465 32.6584C37.9465 31.8879 37.2885 31.2347 36.4786 31.2347C35.6856 31.2347 35.0276 31.8879 35.0276 32.6584C35.0276 33.4792 35.6856 34.1325 36.4786 34.1325ZM26.0856 34.1325C26.8785 34.1325 27.5365 33.4625 27.5365 32.6584C27.5365 31.8879 26.8785 31.2347 26.0856 31.2347C25.2757 31.2347 24.6177 31.8879 24.6177 32.6584C24.6177 33.4792 25.2757 34.1325 26.0856 34.1325ZM31.2821 45.7908C34.454 45.7908 37.0185 43.2447 37.0185 40.0956C37.0185 36.9633 34.454 34.4172 31.2821 34.4172C28.1271 34.4172 25.5625 36.9633 25.5625 40.0956C25.5625 43.2447 28.1271 45.7908 31.2821 45.7908ZM31.2821 42.7254C29.8142 42.7254 28.6501 41.5697 28.6501 40.0956C28.6501 38.6216 29.8142 37.4993 31.2821 37.4993C32.7837 37.4993 33.931 38.6216 33.931 40.0956C33.931 41.5697 32.7837 42.7254 31.2821 42.7254Z" fill="#FF3939"/>
</svg>
