<svg width="62" height="62" viewBox="0 0 62 62" fill="none" xmlns="http://www.w3.org/2000/svg">
<path d="M22.7449 48.7908H38.8362C41.4895 48.7908 42.7905 47.4006 42.7905 44.3675V31.531C42.7905 28.8409 41.7634 27.4508 39.675 27.1619V22.9553C39.675 16.0947 35.344 12.7908 30.7905 12.7908C26.237 12.7908 21.9061 16.0947 21.9061 22.9553V27.1619C19.8176 27.4508 18.7905 28.8409 18.7905 31.531V44.3675C18.7905 47.4006 20.0915 48.7908 22.7449 48.7908ZM25.1928 22.6303C25.1928 18.4237 27.7263 16.1127 30.7905 16.1127C33.8376 16.1127 36.3882 18.4237 36.3882 22.6303V27.1077H25.1928V22.6303ZM23.2927 45.523C22.5395 45.523 22.1629 45.1438 22.1629 44.205V31.6935C22.1629 30.7366 22.5395 30.3936 23.2927 30.3936H38.3055C39.0587 30.3936 39.4182 30.7366 39.4182 31.6935V44.205C39.4182 45.1438 39.0587 45.523 38.3055 45.523H23.2927Z" fill="#FF3939"/>
</svg>
