<svg width="62" height="62" viewBox="0 0 62 62" fill="none" xmlns="http://www.w3.org/2000/svg">
<path d="M11.7905 41.4847C11.7905 44.6185 13.5367 46.3335 16.7329 46.3335H35.9566C39.1372 46.3335 40.8834 44.6185 40.8834 41.4847V36.2617C40.8834 36.0122 41.0549 35.8875 41.3511 36.0746C42.271 36.6982 43.3468 37.1348 44.5785 37.1348C47.6031 37.1348 50.3628 34.7494 50.3628 31.1166C50.3628 27.4839 47.6031 25.0829 44.5785 25.0829C43.3468 25.0829 42.271 25.5195 41.3511 26.1431C41.0549 26.3302 40.8834 26.2211 40.8834 25.956V20.6395C40.8834 17.5057 39.1372 15.7906 35.9566 15.7906H16.7329C13.5367 15.7906 11.7905 17.5057 11.7905 20.6395V27.5151C11.7905 28.9183 12.726 29.807 13.9265 29.807C14.5969 29.807 15.2206 29.5419 15.8286 29.0119C16.5614 28.3726 17.3721 27.9517 18.2608 27.9517C19.9602 27.9517 21.3478 29.1834 21.3478 31.0855C21.3478 32.972 19.9602 34.2193 18.2608 34.2193C17.3721 34.2193 16.5614 33.7827 15.8286 33.1435C15.2206 32.629 14.5969 32.3483 13.9265 32.3483C12.726 32.3483 11.7905 33.237 11.7905 34.6402V41.4847ZM14.7216 41.3444V36.4176C14.7216 35.7628 15.0646 35.981 15.3609 36.1681C16.2496 36.7138 17.2474 37.1036 18.4167 37.1036C21.4258 37.1036 24.1854 34.7026 24.1854 31.0855C24.1854 27.4527 21.4258 25.0517 18.4167 25.0517C17.2474 25.0517 16.2496 25.4571 15.3609 26.0028C15.0646 26.1899 14.7216 26.4081 14.7216 25.7377V20.7798C14.7216 19.4545 15.4856 18.7218 16.7641 18.7218H35.9099C37.1883 18.7218 37.9679 19.4545 37.9679 20.7798V27.5151C37.9679 28.9183 38.8878 29.8382 40.0883 29.8382C40.7587 29.8382 41.3823 29.5731 41.9904 29.043C42.7232 28.4038 43.5339 27.9828 44.4382 27.9828C46.122 27.9828 47.5096 29.2301 47.5096 31.1166C47.5096 33.0032 46.122 34.2504 44.4382 34.2504C43.5339 34.2504 42.7232 33.8295 41.9904 33.1902C41.3823 32.6602 40.7587 32.3795 40.0883 32.3795C38.8878 32.3795 37.9679 33.315 37.9679 34.7182V41.3444C37.9679 42.6696 37.1883 43.418 35.9099 43.418H16.7641C15.4856 43.418 14.7216 42.6696 14.7216 41.3444Z" fill="#FF3939"/>
</svg>
