<svg width="62" height="62" viewBox="0 0 62 62" fill="none" xmlns="http://www.w3.org/2000/svg">
<path d="M38.6797 23.3502C40.822 23.3502 42.6667 21.964 43.4403 20.0478H49.9661C50.9579 20.0478 51.791 19.1509 51.791 18.0705C51.791 16.9901 50.9579 16.1135 49.9661 16.1135H43.4403C42.6865 14.177 40.8418 12.7908 38.6797 12.7908C36.5177 12.7908 34.673 14.177 33.9192 16.1135H12.6754C11.6241 16.1135 10.791 16.9901 10.791 18.0705C10.791 19.1509 11.6241 20.0478 12.6754 20.0478H33.9192C34.6928 21.964 36.5375 23.3502 38.6797 23.3502ZM38.6797 20.5779C37.3111 20.5779 36.24 19.4567 36.24 18.0705C36.24 16.6435 37.3111 15.5428 38.6797 15.5428C40.0682 15.5428 41.1195 16.6435 41.1195 18.0705C41.1195 19.4567 40.0682 20.5779 38.6797 20.5779ZM12.6159 28.8338C11.6241 28.8338 10.791 29.7104 10.791 30.7908C10.791 31.8508 11.6241 32.7477 12.6159 32.7477H19.36C20.1335 34.7047 21.9782 36.0705 24.1403 36.0705C26.2825 36.0705 28.1273 34.7047 28.9008 32.7477H49.9066C50.9579 32.7477 51.791 31.8712 51.791 30.7908C51.791 29.7104 50.9579 28.8338 49.9066 28.8338H28.9008C28.1273 26.8972 26.2825 25.5314 24.1403 25.5314C21.9782 25.5314 20.1335 26.8972 19.36 28.8338H12.6159ZM24.1403 33.3185C22.7717 33.3185 21.6807 32.1973 21.6807 30.7908C21.6807 29.3638 22.7717 28.2834 24.1403 28.2834C25.509 28.2834 26.5801 29.3638 26.5801 30.7908C26.5801 32.1973 25.509 33.3185 24.1403 33.3185ZM38.6797 48.7908C40.8418 48.7908 42.6865 47.4046 43.4403 45.468H49.9661C50.9579 45.468 51.791 44.5914 51.791 43.511C51.791 42.4102 50.9579 41.5541 49.9661 41.5541H43.4403C42.6865 39.6175 40.8418 38.2313 38.6797 38.2313C36.5375 38.2313 34.673 39.6175 33.9192 41.5541H12.6754C11.6241 41.5541 10.791 42.4306 10.791 43.511C10.791 44.5711 11.6241 45.468 12.6754 45.468H33.9192C34.673 47.4046 36.5177 48.7908 38.6797 48.7908ZM38.6797 46.0184C37.3111 46.0184 36.24 44.8972 36.24 43.511C36.24 42.0841 37.3111 41.0037 38.6797 41.0037C40.0682 41.0037 41.1195 42.0841 41.1195 43.511C41.1195 44.8972 40.0682 46.0184 38.6797 46.0184Z" fill="#FF3939"/>
</svg>
