<svg width="813" height="617" viewBox="0 0 813 617" fill="none" xmlns="http://www.w3.org/2000/svg">
<g clip-path="url(#clip0_113_3159)">
<path d="M250.626 97.6958L335.286 144.729L248.745 193.643L164.085 146.61L250.626 97.6958Z" fill="#FAFAFA"/>
<path d="M120.815 272.659L205.474 319.692L118.933 368.607L34.2739 321.573L120.815 272.659Z" fill="#FAFAFA"/>
<path d="M248.745 398.708L295.778 424.837L335.286 446.682L246.864 494.655L162.204 447.622L205.474 423.165L248.745 398.708Z" fill="#FAFAFA"/>
<path d="M382.319 221.863L466.979 268.896L380.438 317.811L295.778 270.778L382.319 221.863Z" fill="#FAFAFA"/>
<path d="M335.286 144.729L248.745 193.643L248.745 398.708L295.778 424.837L295.778 270.778L335.286 248.447L335.286 144.729Z" fill="#FAFAFA"/>
<path d="M248.745 193.643L164.085 146.61L164.085 296.698L205.474 319.692L205.474 423.165L248.745 398.708L248.745 193.643Z" fill="#FAFAFA"/>
<path d="M205.474 319.692L118.933 368.607L120.815 519.113L162.204 494.655L162.204 447.622L205.474 423.165L205.474 319.692Z" fill="#FAFAFA"/>
<path d="M118.933 368.607L34.2739 321.573L34.2738 470.198L120.815 519.113L118.933 368.607Z" fill="#FAFAFA"/>
<path d="M246.864 494.655L162.204 447.622L162.204 494.655V547.332L246.864 599.069L246.864 494.655Z" fill="#FAFAFA"/>
<path d="M335.286 446.682L295.778 468.117L246.864 494.655L246.864 599.069L335.286 547.332L335.286 491.833L335.286 446.682Z" fill="#FAFAFA"/>
<path d="M380.438 317.811L295.778 270.778L295.778 424.837L335.286 446.682L335.286 491.833L380.438 519.113L380.438 317.811Z" fill="#FAFAFA"/>
<path d="M466.979 268.896L380.438 317.811L380.438 519.113L466.979 470.198L466.979 268.896Z" fill="#FAFAFA"/>
<path d="M335.286 144.729L250.626 97.6958L164.085 146.61M335.286 144.729L248.745 193.643M335.286 144.729L335.286 248.447L295.778 270.778M248.745 193.643L164.085 146.61M248.745 193.643L248.745 398.708M164.085 146.61L164.085 296.698L205.474 319.692M248.745 398.708L295.778 424.837M248.745 398.708L205.474 423.165M205.474 319.692L120.815 272.659L34.2739 321.573M205.474 319.692L118.933 368.607M205.474 319.692L205.474 423.165M118.933 368.607L34.2739 321.573M118.933 368.607L120.815 519.113M34.2739 321.573L34.2738 470.198L120.815 519.113M335.286 446.682L246.864 494.655M335.286 446.682L295.778 424.837M335.286 446.682L295.778 468.117L246.864 494.655M335.286 446.682L335.286 547.332M335.286 446.682L335.286 491.833M246.864 494.655L162.204 447.622M246.864 494.655L246.864 599.069M162.204 447.622L205.474 423.165M162.204 447.622L162.204 494.655M466.979 268.896L382.319 221.863L295.778 270.778M466.979 268.896L380.438 317.811M466.979 268.896L466.979 470.198L380.438 519.113M380.438 317.811L295.778 270.778M380.438 317.811L380.438 519.113M295.778 270.778L295.778 424.837M380.438 519.113L335.286 491.833M335.286 491.833L335.286 547.332M335.286 547.332L246.864 599.069M246.864 599.069L162.204 547.332V494.655M120.815 519.113L162.204 494.655" stroke="#A4BBB7" stroke-width="1.5" stroke-linecap="round" stroke-linejoin="round"/>
<circle cx="420.546" cy="36.1243" r="27.8134" transform="rotate(9.25411 420.546 36.1243)" fill="#FAFAFA"/>
<circle cx="358.366" cy="100.671" r="27.8134" transform="rotate(9.25411 358.366 100.671)" fill="#FAFAFA"/>
<circle cx="440.229" cy="125.751" r="27.8134" transform="rotate(9.25411 440.229 125.751)" fill="#FAFAFA"/>
<circle cx="508.688" cy="132.208" r="27.8134" transform="rotate(9.25411 508.688 132.208)" fill="#FAFAFA"/>
<circle cx="575.675" cy="90.0496" r="27.8134" transform="rotate(9.25411 575.675 90.0496)" fill="#FAFAFA"/>
<circle cx="558.976" cy="192.535" r="27.8134" transform="rotate(9.25411 558.976 192.535)" fill="#FAFAFA"/>
<path d="M378.317 81.2202L400.594 56.1066M438.021 97.63L431.515 61.9606M533.443 118.083L551.525 104.311M528.356 152.448L541.131 171.248M468.774 126.61L481.392 128.373M362.941 73.3493C378.168 75.8303 388.501 90.1857 386.02 105.413C383.539 120.64 369.183 130.973 353.956 128.492C338.729 126.011 328.396 111.656 330.877 96.4283C333.358 81.2011 347.713 70.8683 362.941 73.3493ZM445.17 97.8925C460.397 100.374 470.73 114.729 468.249 129.956C465.768 145.183 451.412 155.516 436.185 153.035C420.958 150.554 410.625 136.199 413.106 120.972C415.587 105.744 429.943 95.4115 445.17 97.8925ZM424.812 8.63902C440.039 11.12 450.372 25.4754 447.891 40.7026C445.41 55.9299 431.054 66.2627 415.827 63.7817C400.6 61.3006 390.267 46.9453 392.748 31.718C395.229 16.4908 409.584 6.15798 424.812 8.63902ZM513.536 104.925C528.763 107.406 539.096 121.762 536.615 136.989C534.134 152.216 519.778 162.549 504.551 160.068C489.324 157.587 478.991 143.232 481.472 128.004C483.953 112.777 498.308 102.444 513.536 104.925ZM580.055 62.0906C595.282 64.5716 605.615 78.927 603.134 94.1542C600.653 109.381 586.298 119.714 571.071 117.233C555.843 114.752 545.511 100.397 547.992 85.1696C550.473 69.9424 564.828 59.6096 580.055 62.0906ZM554.783 220.341C570.01 222.822 584.366 212.489 586.847 197.262C589.328 182.034 578.995 167.679 563.768 165.198C548.54 162.717 534.185 173.05 531.704 188.277C529.223 203.504 539.556 217.86 554.783 220.341Z" stroke="#A4BBB7" stroke-width="1.63368" stroke-miterlimit="10" stroke-linecap="round" stroke-linejoin="round"/>
<path d="M459.594 481.003L520.596 445.486L497.907 493.711C505.414 494.87 513 495.449 520.596 495.442C568.508 495.442 607.348 473.078 607.348 445.491C607.348 417.903 568.508 395.535 520.596 395.535C472.683 395.535 433.844 417.899 433.844 445.486C433.844 459.38 443.695 471.948 459.594 481.003Z" fill="#FAFAFA"/>
<path d="M520.596 495.442C513 495.449 505.414 494.87 497.907 493.711V529.723V564.43C524.262 569.034 549.473 564.372 558.784 561.465C599.028 550.024 607.928 526.932 607.348 516.816V445.491C607.348 473.078 568.508 495.442 520.596 495.442Z" fill="#FAFAFA"/>
<path d="M459.594 481.003C443.695 471.948 433.844 459.38 433.844 445.486V516.816C433.385 523.618 437.893 540.117 459.594 551.698V481.003Z" fill="#FAFAFA"/>
<path d="M520.596 445.486L459.594 481.003V551.698L497.907 529.723V493.711L520.596 445.486Z" fill="#FAFAFA"/>
<path d="M459.594 481.003L520.596 445.486L497.907 493.711M459.594 481.003C443.695 471.948 433.844 459.38 433.844 445.486M459.594 481.003V551.698M497.907 493.711C505.414 494.87 513 495.449 520.596 495.442C568.508 495.442 607.348 473.078 607.348 445.491M497.907 493.711V529.723M607.348 445.491C607.348 417.903 568.508 395.535 520.596 395.535C472.683 395.535 433.844 417.899 433.844 445.486M607.348 445.491V516.816C607.928 526.932 599.028 550.024 558.784 561.465C549.473 564.372 524.262 569.034 497.907 564.43V529.723M433.844 445.486V516.816C433.385 523.618 437.893 540.117 459.594 551.698M459.594 551.698L497.907 529.723" stroke="#A4BBB7" stroke-width="1.5" stroke-linecap="round" stroke-linejoin="round"/>
</g>
<defs>
<clipPath id="clip0_113_3159">
<rect width="813" height="617" fill="white" transform="matrix(1 0 0 -1 0 617)"/>
</clipPath>
</defs>
</svg>
