<svg width="1981" height="2157" viewBox="0 0 1981 2157" fill="none" xmlns="http://www.w3.org/2000/svg">
<path d="M99.05 0C99.05 0 99.05 718.911 99.05 2156.73" stroke="#E4E7EB" stroke-width="1.65083"/>
<path d="M198.1 0C198.1 0 198.1 718.911 198.1 2156.73" stroke="#E4E7EB" stroke-width="1.65083"/>
<path d="M297.15 0C297.15 0 297.15 718.911 297.15 2156.73" stroke="#E4E7EB" stroke-width="1.65083"/>
<path d="M396.2 0C396.2 0 396.2 718.911 396.2 2156.73" stroke="#E4E7EB" stroke-width="1.65083"/>
<path d="M495.25 0C495.25 0 495.25 718.911 495.25 2156.73" stroke="#E4E7EB" stroke-width="1.65083"/>
<path d="M594.3 0C594.3 0 594.3 718.911 594.3 2156.73" stroke="#E4E7EB" stroke-width="1.65083"/>
<path d="M693.35 0C693.35 0 693.35 718.911 693.35 2156.73" stroke="#E4E7EB" stroke-width="1.65083"/>
<path d="M792.4 0C792.4 0 792.4 718.911 792.4 2156.73" stroke="#E4E7EB" stroke-width="1.65083"/>
<path d="M891.45 0C891.45 0 891.45 718.911 891.45 2156.73" stroke="#E4E7EB" stroke-width="1.65083"/>
<path d="M990.5 0C990.5 0 990.5 718.911 990.5 2156.73" stroke="#E4E7EB" stroke-width="1.65083"/>
<path d="M1089.55 0C1089.55 0 1089.55 718.911 1089.55 2156.73" stroke="#E4E7EB" stroke-width="1.65083"/>
<path d="M1188.6 0C1188.6 0 1188.6 718.911 1188.6 2156.73" stroke="#E4E7EB" stroke-width="1.65083"/>
<path d="M1287.65 0C1287.65 0 1287.65 718.911 1287.65 2156.73" stroke="#E4E7EB" stroke-width="1.65083"/>
<path d="M1386.7 0C1386.7 0 1386.7 718.911 1386.7 2156.73" stroke="#E4E7EB" stroke-width="1.65083"/>
<path d="M1485.75 0C1485.75 0 1485.75 718.911 1485.75 2156.73" stroke="#E4E7EB" stroke-width="1.65083"/>
<path d="M1584.8 0C1584.8 0 1584.8 718.911 1584.8 2156.73" stroke="#E4E7EB" stroke-width="1.65083"/>
<path d="M1683.85 0C1683.85 0 1683.85 718.911 1683.85 2156.73" stroke="#E4E7EB" stroke-width="1.65083"/>
<path d="M1782.9 0C1782.9 0 1782.9 718.911 1782.9 2156.73" stroke="#E4E7EB" stroke-width="1.65083"/>
<path d="M1881.95 0C1881.95 0 1881.95 718.911 1881.95 2156.73" stroke="#E4E7EB" stroke-width="1.65083"/>
<path d="M0 80.8771C0 80.8771 660.333 80.8771 1981 80.8771" stroke="#E4E7EB" stroke-width="1.65083"/>
<path d="M0 161.755C0 161.755 660.333 161.755 1981 161.755" stroke="#E4E7EB" stroke-width="1.65083"/>
<path d="M0 242.632C0 242.632 660.333 242.632 1981 242.632" stroke="#E4E7EB" stroke-width="1.65083"/>
<path d="M0 323.51C0 323.51 660.333 323.51 1981 323.51" stroke="#E4E7EB" stroke-width="1.65083"/>
<path d="M0 404.388C0 404.388 660.333 404.388 1981 404.388" stroke="#E4E7EB" stroke-width="1.65083"/>
<path d="M0 485.265C0 485.265 660.333 485.265 1981 485.265" stroke="#E4E7EB" stroke-width="1.65083"/>
<path d="M0 566.143C0 566.143 660.333 566.143 1981 566.143" stroke="#E4E7EB" stroke-width="1.65083"/>
<path d="M0 647.02C0 647.02 660.333 647.02 1981 647.02" stroke="#E4E7EB" stroke-width="1.65083"/>
<path d="M0 727.898C0 727.898 660.333 727.898 1981 727.898" stroke="#E4E7EB" stroke-width="1.65083"/>
<path d="M0 808.775C0 808.775 660.333 808.775 1981 808.775" stroke="#E4E7EB" stroke-width="1.65083"/>
<path d="M0 889.652C0 889.652 660.333 889.652 1981 889.652" stroke="#E4E7EB" stroke-width="1.65083"/>
<path d="M0 970.53C0 970.53 660.333 970.53 1981 970.53" stroke="#E4E7EB" stroke-width="1.65083"/>
<path d="M0 1051.41C0 1051.41 660.333 1051.41 1981 1051.41" stroke="#E4E7EB" stroke-width="1.65083"/>
<path d="M0 1132.29C0 1132.29 660.333 1132.29 1981 1132.29" stroke="#E4E7EB" stroke-width="1.65083"/>
<path d="M0 1213.16C0 1213.16 660.333 1213.16 1981 1213.16" stroke="#E4E7EB" stroke-width="1.65083"/>
<path d="M0 1294.04C0 1294.04 660.333 1294.04 1981 1294.04" stroke="#E4E7EB" stroke-width="1.65083"/>
<path d="M0 1374.92C0 1374.92 660.333 1374.92 1981 1374.92" stroke="#E4E7EB" stroke-width="1.65083"/>
<path d="M0 1455.8C0 1455.8 660.333 1455.8 1981 1455.8" stroke="#E4E7EB" stroke-width="1.65083"/>
<path d="M0 1536.67C0 1536.67 660.333 1536.67 1981 1536.67" stroke="#E4E7EB" stroke-width="1.65083"/>
<path d="M0 1617.55C0 1617.55 660.333 1617.55 1981 1617.55" stroke="#E4E7EB" stroke-width="1.65083"/>
<path d="M0 1698.43C0 1698.43 660.333 1698.43 1981 1698.43" stroke="#E4E7EB" stroke-width="1.65083"/>
<path d="M0 1779.31C0 1779.31 660.333 1779.31 1981 1779.31" stroke="#E4E7EB" stroke-width="1.65083"/>
<path d="M0 1860.18C0 1860.18 660.333 1860.18 1981 1860.18" stroke="#E4E7EB" stroke-width="1.65083"/>
<path d="M0 1941.06C0 1941.06 660.333 1941.06 1981 1941.06" stroke="#E4E7EB" stroke-width="1.65083"/>
<path d="M0 2021.94C0 2021.94 660.333 2021.94 1981 2021.94" stroke="#E4E7EB" stroke-width="1.65083"/>
<path d="M0 2102.81C0 2102.81 660.333 2102.81 1981 2102.81" stroke="#E4E7EB" stroke-width="1.65083"/>
</svg>
