<svg width="1440" height="814" viewBox="0 0 1440 814" fill="none" xmlns="http://www.w3.org/2000/svg">
<g clip-path="url(#clip0_1_482)">
<line y1="5.5" x2="1623" y2="5.5" stroke="#C7CCD3" stroke-dasharray="18 11"/>
<line y1="166.5" x2="1623" y2="166.5" stroke="#C7CCD3" stroke-dasharray="18 11"/>
<line y1="327.5" x2="1623" y2="327.5" stroke="#C7CCD3" stroke-dasharray="18 11"/>
<line y1="488.5" x2="1623" y2="488.5" stroke="#C7CCD3" stroke-dasharray="18 11"/>
<line y1="649.5" x2="1623" y2="649.5" stroke="#C7CCD3" stroke-dasharray="18 11"/>
<line x1="0.5" y1="6" x2="0.499972" y2="650" stroke="#C7CCD3" stroke-dasharray="18 11"/>
<line x1="180.5" y1="6" x2="180.5" y2="650" stroke="#C7CCD3" stroke-dasharray="18 11"/>
<line x1="360.5" y1="6" x2="360.5" y2="650" stroke="#C7CCD3" stroke-dasharray="18 11"/>
<line x1="540.5" y1="6" x2="540.5" y2="650" stroke="#C7CCD3" stroke-dasharray="18 11"/>
<line x1="720.5" y1="6" x2="720.5" y2="650" stroke="#C7CCD3" stroke-dasharray="18 11"/>
<line x1="900.5" y1="6" x2="900.5" y2="650" stroke="#C7CCD3" stroke-dasharray="18 11"/>
<line x1="1080.5" y1="6" x2="1080.5" y2="650" stroke="#C7CCD3" stroke-dasharray="18 11"/>
<line x1="1260.5" y1="6" x2="1260.5" y2="650" stroke="#C7CCD3" stroke-dasharray="18 11"/>
<line y1="649.5" x2="1623" y2="649.5" stroke="#C7CCD3" stroke-dasharray="18 11"/>
<line y1="810.5" x2="1623" y2="810.5" stroke="#C7CCD3" stroke-dasharray="18 11"/>
<line x1="0.5" y1="650" x2="0.499972" y2="1294" stroke="#C7CCD3" stroke-dasharray="18 11"/>
<line x1="180.5" y1="650" x2="180.5" y2="1294" stroke="#C7CCD3" stroke-dasharray="18 11"/>
<line x1="360.5" y1="650" x2="360.5" y2="1294" stroke="#C7CCD3" stroke-dasharray="18 11"/>
<line x1="540.5" y1="650" x2="540.5" y2="1294" stroke="#C7CCD3" stroke-dasharray="18 11"/>
<line x1="720.5" y1="650" x2="720.5" y2="1294" stroke="#C7CCD3" stroke-dasharray="18 11"/>
<line x1="900.5" y1="650" x2="900.5" y2="1294" stroke="#C7CCD3" stroke-dasharray="18 11"/>
<line x1="1080.5" y1="650" x2="1080.5" y2="1294" stroke="#C7CCD3" stroke-dasharray="18 11"/>
<line x1="1260.5" y1="650" x2="1260.5" y2="1294" stroke="#C7CCD3" stroke-dasharray="18 11"/>
</g>
<defs>
<clipPath id="clip0_1_482">
<rect width="1440" height="814" fill="white"/>
</clipPath>
</defs>
</svg>
