<svg width="76" height="37" viewBox="0 0 76 37" fill="none" xmlns="http://www.w3.org/2000/svg">
<g clip-path="url(#clip0_1_586)">
<mask id="mask0_1_586" style="mask-type:luminance" maskUnits="userSpaceOnUse" x="-314" y="-86" width="709" height="717">
<path d="M-313.58 630.265H394.377V-85.1712H-313.58V630.265Z" fill="white"/>
</mask>
<g mask="url(#mask0_1_586)">
<path d="M39.4128 31.9477C37.9678 31.8504 36.3016 31.5944 34.9874 31.2098C34.7413 31.1377 33.722 30.7591 33.4628 30.6389C28.8876 28.4972 25.7003 23.822 25.7003 18.398C25.7003 10.9585 31.6895 4.89873 39.056 4.89873C46.3571 4.89873 52.3059 10.8551 52.4082 18.2105H57.2332C57.1309 8.16778 49.0187 0.0288048 39.056 0.0288048C29.0339 0.0288048 20.8765 8.26753 20.8765 18.398C20.8765 25.382 24.7631 31.4562 30.4539 34.5594C31.4814 35.1086 32.9561 35.6747 33.4568 35.8297C35.079 36.3177 37.0699 36.6422 38.8419 36.778C39.4437 36.8237 41.5452 36.8477 42.1577 36.8501H75.3841V31.9934H42.2136C41.7724 31.9934 39.8445 31.9766 39.4128 31.9477ZM42.2136 24.3219C41.8627 24.3219 40.0277 24.3099 39.6887 24.2811C39.1143 24.2318 38.2818 24.1453 37.7466 24.0215C37.1424 23.858 36.5752 23.6417 36.3195 23.4999C34.5272 22.5204 33.3058 20.6046 33.3058 18.398C33.3058 15.1878 35.8782 12.5846 39.056 12.5846C42.1672 12.5846 44.6968 15.0857 44.7979 18.2105H49.4338C49.3363 12.5017 44.7313 7.90097 39.056 7.90097C33.3177 7.90097 28.6664 12.6002 28.6664 18.398C28.6664 22.4867 30.9855 26.0178 34.3631 27.7472C34.8828 28.0549 35.8604 28.377 36.1387 28.4503C37.0925 28.7039 38.3734 28.877 39.4128 28.9539C39.7969 28.9863 41.6784 29.0008 42.0756 29.0032V29.0104H75.3829V24.3219H42.2136ZM17.9033 36.8321H13.0462V4.90955H5.94851V-4.19617e-05H17.9033V36.8321ZM0.615723 7.36254V12.0834H5.94851V36.8321H10.6153V7.36254H0.615723Z" fill="#D91920"/>
<path d="M66.8019 0.34277C65.0525 0.34277 63.6016 1.75255 63.6016 3.52168C63.6016 5.29081 65.0525 6.75708 66.8019 6.75708C68.6049 6.75708 70 5.29081 70 3.52168C70 1.75255 68.6049 0.34277 66.8019 0.34277ZM66.8019 6.23547C65.357 6.23547 64.1118 5.0877 64.1118 3.52168C64.1118 2.03498 65.357 0.858366 66.8019 0.858366C68.2457 0.858366 69.485 2.03498 69.485 3.52168C69.485 5.0877 68.2457 6.23547 66.8019 6.23547Z" fill="#D91920"/>
<path d="M68.0203 4.39284C68.0203 4.03589 67.968 3.70418 67.5637 3.57318C68.0703 3.3953 68.1202 3.05998 68.1202 2.85687C68.1202 2.036 67.3829 1.93144 67.0796 1.93144H65.6846V5.11035H66.2661V3.80634H66.724C67.3829 3.80634 67.4376 4.11281 67.4376 4.39284C67.4376 4.93488 67.4376 5.03704 67.5637 5.11035H68.1464C68.0203 4.98175 68.0703 4.882 68.0203 4.39284ZM66.9524 3.34242H66.2661V2.34127H66.8536C67.2604 2.34127 67.5363 2.47107 67.5363 2.85687C67.5363 3.05998 67.4376 3.34242 66.9524 3.34242Z" fill="#D91920"/>
</g>
</g>
<defs>
<clipPath id="clip0_1_586">
<rect width="74.7684" height="36.8501" fill="white" transform="translate(0.615723)"/>
</clipPath>
</defs>
</svg>
