<svg width="2188" height="890" viewBox="0 0 2188 890" fill="none" xmlns="http://www.w3.org/2000/svg">
<mask id="mask0_113_3172" style="mask-type:alpha" maskUnits="userSpaceOnUse" x="0" y="0" width="2188" height="890">
<g clip-path="url(#clip0_113_3172)">
<mask id="mask1_113_3172" style="mask-type:luminance" maskUnits="userSpaceOnUse" x="-965" y="-2305" width="4482" height="3687">
<path d="M-964.3 -2304.56H3516.37V1381.84H-964.3V-2304.56Z" fill="white"/>
</mask>
<g mask="url(#mask1_113_3172)">
<mask id="mask2_113_3172" style="mask-type:luminance" maskUnits="userSpaceOnUse" x="-91" y="-8" width="769" height="440">
<path d="M-90.2 -7.36035H677.72V431.41H-90.2V-7.36035Z" fill="white"/>
</mask>
<g mask="url(#mask2_113_3172)">
<path d="M363.77 411.389H420.1L212.03 145.56H155.57L363.77 411.389ZM416 409.389H364.75L159.68 147.56H211.06L416 409.389Z" fill="#E6E6E6"/>
<path d="M375.59 278.47H431.92L223.85 12.6396H167.39L375.59 278.47ZM427.82 276.47H376.57L171.5 14.6396H222.88L427.82 276.47Z" fill="#E6E6E6"/>
<path d="M595.48 411.39H651.81L650.54 409.77L339.64 12.6396H283.31L595.48 411.39ZM647.71 409.39H596.46L287.42 14.6396H338.67L647.71 409.39Z" fill="#E6E6E6"/>
<path d="M80.0503 344.93H136.38L-123.74 12.6396H-180.2L80.0503 344.93ZM132.28 342.93H81.0303L-176.09 14.6396H-124.71L132.28 342.93Z" fill="#E6E6E6"/>
<path d="M247.87 411.39H304.199L-7.97046 12.6396H-64.3005L247.87 411.39ZM300.1 409.39H248.85L-60.1904 14.6396H-8.94043L300.1 409.39Z" fill="#E6E6E6"/>
<path d="M711.39 411.41H767.72L507.6 79.1201H451.14L711.39 411.41ZM763.62 409.41H712.37L455.25 81.1201H506.63L763.62 409.41Z" fill="#E6E6E6"/>
<path d="M847.97 344.93H904.3L644.18 12.6396H587.72L847.97 344.93ZM900.2 342.93H848.95L591.83 14.6396H643.21L900.2 342.93Z" fill="#E6E6E6"/>
</g>
<mask id="mask3_113_3172" style="mask-type:luminance" maskUnits="userSpaceOnUse" x="-91" y="431" width="769" height="440">
<path d="M-90.2 431.41H677.72V870.18H-90.2V431.41Z" fill="white"/>
</mask>
<g mask="url(#mask3_113_3172)">
<path d="M363.77 850.16H420.1L212.03 584.33H155.57L363.77 850.16ZM416 848.16H364.75L159.68 586.33H211.06L416 848.16Z" fill="#E6E6E6"/>
<path d="M375.59 717.24H431.92L223.85 451.41H167.39L375.59 717.24ZM427.82 715.24H376.57L171.5 453.41H222.88L427.82 715.24Z" fill="#E6E6E6"/>
<path d="M595.48 850.16H651.81L650.54 848.54L339.64 451.41H283.31L595.48 850.16ZM647.71 848.16H596.46L287.42 453.41H338.67L647.71 848.16Z" fill="#E6E6E6"/>
<path d="M80.0503 783.7H136.38L-123.74 451.41H-180.2L80.0503 783.7ZM132.28 781.7H81.0303L-176.09 453.41H-124.71L132.28 781.7Z" fill="#E6E6E6"/>
<path d="M247.87 850.16H304.199L-7.97046 451.41H-64.3005L247.87 850.16ZM300.1 848.16H248.85L-60.1904 453.41H-8.94043L300.1 848.16Z" fill="#E6E6E6"/>
<path d="M711.39 850.18H767.72L507.6 517.89H451.14L711.39 850.18ZM763.62 848.18H712.37L455.25 519.89H506.63L763.62 848.18Z" fill="#E6E6E6"/>
<path d="M847.97 783.7H904.3L644.18 451.41H587.72L847.97 783.7ZM900.2 781.7H848.95L591.83 453.41H643.21L900.2 781.7Z" fill="#E6E6E6"/>
</g>
<mask id="mask4_113_3172" style="mask-type:luminance" maskUnits="userSpaceOnUse" x="677" y="-8" width="769" height="440">
<path d="M677.72 -7.36035H1445.64V431.41H677.72V-7.36035Z" fill="white"/>
</mask>
<g mask="url(#mask4_113_3172)">
<path d="M711.39 411.41H767.72L507.6 79.1201H451.14L711.39 411.41ZM763.62 409.41H712.37L455.25 81.1201H506.63L763.62 409.41Z" fill="#E6E6E6"/>
<path d="M1131.7 411.389H1188.03L979.959 145.56H923.5L1131.7 411.389ZM1183.93 409.389H1132.68L927.61 147.56H978.99L1183.93 409.389Z" fill="#E6E6E6"/>
<path d="M1143.51 278.47H1199.84L991.77 12.6396H935.31L1143.51 278.47ZM1195.74 276.47H1144.49L939.42 14.6396H990.8L1195.74 276.47Z" fill="#E6E6E6"/>
<path d="M1363.41 411.39H1419.74L1418.47 409.77L1107.57 12.6396H1051.24L1052.51 14.2598L1363.41 411.39ZM1415.64 409.39H1364.39L1055.35 14.6396H1106.6L1415.64 409.39Z" fill="#E6E6E6"/>
<path d="M847.97 344.93H904.3L644.18 12.6396H587.72L847.97 344.93ZM900.2 342.93H848.95L591.83 14.6396H643.21L900.2 342.93Z" fill="#E6E6E6"/>
<path d="M1015.8 411.39H1072.13L1070.86 409.77L759.96 12.6396H703.63L704.9 14.2598L1015.8 411.39ZM1068.03 409.39H1016.78L707.74 14.6396H758.99L1068.03 409.39Z" fill="#E6E6E6"/>
<path d="M1479.31 411.41H1535.64L1275.52 79.1201H1219.06L1479.31 411.41ZM1531.54 409.41H1480.29L1223.17 81.1201H1274.55L1531.54 409.41Z" fill="#E6E6E6"/>
<path d="M1615.89 344.93H1672.22L1412.1 12.6396H1355.64L1615.89 344.93ZM1668.12 342.93H1616.87L1359.75 14.6396H1411.13L1668.12 342.93Z" fill="#E6E6E6"/>
</g>
<mask id="mask5_113_3172" style="mask-type:luminance" maskUnits="userSpaceOnUse" x="677" y="431" width="769" height="440">
<path d="M677.72 431.41H1445.64V870.18H677.72V431.41Z" fill="white"/>
</mask>
<g mask="url(#mask5_113_3172)">
<path d="M711.39 850.18H767.72L507.6 517.89H451.14L711.39 850.18ZM763.62 848.18H712.37L455.25 519.89H506.63L763.62 848.18Z" fill="#E6E6E6"/>
<path d="M1131.7 850.16H1188.03L979.959 584.33H923.5L1131.7 850.16ZM1183.93 848.16H1132.68L927.61 586.33H978.99L1183.93 848.16Z" fill="#E6E6E6"/>
<path d="M1143.51 717.24H1199.84L991.77 451.41H935.31L1143.51 717.24ZM1195.74 715.24H1144.49L939.42 453.41H990.8L1195.74 715.24Z" fill="#E6E6E6"/>
<path d="M1363.41 850.16H1419.74L1418.47 848.54L1107.57 451.41H1051.24L1052.51 453.03L1363.41 850.16ZM1415.64 848.16H1364.39L1055.35 453.41H1106.6L1415.64 848.16Z" fill="#E6E6E6"/>
<path d="M847.97 783.7H904.3L644.18 451.41H587.72L847.97 783.7ZM900.2 781.7H848.95L591.83 453.41H643.21L900.2 781.7Z" fill="#E6E6E6"/>
<path d="M1015.8 850.16H1072.13L1070.86 848.54L759.96 451.41H703.63L704.9 453.03L1015.8 850.16ZM1068.03 848.16H1016.78L707.74 453.41H758.99L1068.03 848.16Z" fill="#E6E6E6"/>
<path d="M1479.31 850.18H1535.64L1275.52 517.89H1219.06L1479.31 850.18ZM1531.54 848.18H1480.29L1223.17 519.89H1274.55L1531.54 848.18Z" fill="#E6E6E6"/>
<path d="M1615.89 783.7H1672.22L1412.1 451.41H1355.64L1615.89 783.7ZM1668.12 781.7H1616.87L1359.75 453.41H1411.13L1668.12 781.7Z" fill="#E6E6E6"/>
</g>
<mask id="mask6_113_3172" style="mask-type:luminance" maskUnits="userSpaceOnUse" x="1445" y="-8" width="769" height="440">
<path d="M1445.65 -7.36035H2213.57V431.41H1445.65V-7.36035Z" fill="white"/>
</mask>
<g mask="url(#mask6_113_3172)">
<path d="M1479.31 411.41H1535.64L1275.52 79.1201H1219.06L1479.31 411.41ZM1531.54 409.41H1480.29L1223.17 81.1201H1274.55L1531.54 409.41Z" fill="#E6E6E6"/>
<path d="M1899.62 411.389H1955.95L1747.88 145.56H1691.42L1899.62 411.389ZM1951.85 409.389H1900.6L1695.53 147.56H1746.91L1951.85 409.389Z" fill="#E6E6E6"/>
<path d="M1911.44 278.47H1967.77L1759.7 12.6396H1703.24L1911.44 278.47ZM1963.67 276.47H1912.42L1707.35 14.6396H1758.73L1963.67 276.47Z" fill="#E6E6E6"/>
<path d="M2131.33 411.39H2187.66L2186.39 409.77L1875.49 12.6396H1819.16L1820.43 14.2598L2131.33 411.39ZM2183.56 409.39H2132.31L1823.27 14.6396H1874.52L2183.56 409.39Z" fill="#E6E6E6"/>
<path d="M1615.89 344.93H1672.22L1412.1 12.6396H1355.64L1615.89 344.93ZM1668.12 342.93H1616.87L1359.75 14.6396H1411.13L1668.12 342.93Z" fill="#E6E6E6"/>
<path d="M1783.72 411.39H1840.05L1838.78 409.77L1527.88 12.6396H1471.55L1472.82 14.2598L1783.72 411.39ZM1835.95 409.39H1784.7L1475.66 14.6396H1526.91L1835.95 409.39Z" fill="#E6E6E6"/>
<path d="M2247.24 411.41H2303.57L2043.45 79.1201H1986.99L2247.24 411.41ZM2299.47 409.41H2248.22L1991.1 81.1201H2042.48L2299.47 409.41Z" fill="#E6E6E6"/>
<path d="M2383.82 344.93H2440.15L2180.03 12.6396H2123.57L2383.82 344.93ZM2436.05 342.93H2384.8L2127.68 14.6396H2179.06L2436.05 342.93Z" fill="#E6E6E6"/>
</g>
<mask id="mask7_113_3172" style="mask-type:luminance" maskUnits="userSpaceOnUse" x="1445" y="431" width="769" height="440">
<path d="M1445.65 431.41H2213.57V870.18H1445.65V431.41Z" fill="white"/>
</mask>
<g mask="url(#mask7_113_3172)">
<path d="M1479.31 850.18H1535.64L1275.52 517.89H1219.06L1479.31 850.18ZM1531.54 848.18H1480.29L1223.17 519.89H1274.55L1531.54 848.18Z" fill="#E6E6E6"/>
<path d="M1899.62 850.16H1955.95L1747.88 584.33H1691.42L1899.62 850.16ZM1951.85 848.16H1900.6L1695.53 586.33H1746.91L1951.85 848.16Z" fill="#E6E6E6"/>
<path d="M1911.44 717.24H1967.77L1759.7 451.41H1703.24L1911.44 717.24ZM1963.67 715.24H1912.42L1707.35 453.41H1758.73L1963.67 715.24Z" fill="#E6E6E6"/>
<path d="M2131.33 850.16H2187.66L2186.39 848.54L1875.49 451.41H1819.16L1820.43 453.03L2131.33 850.16ZM2183.56 848.16H2132.31L1823.27 453.41H1874.52L2183.56 848.16Z" fill="#E6E6E6"/>
<path d="M1615.89 783.7H1672.22L1412.1 451.41H1355.64L1615.89 783.7ZM1668.12 781.7H1616.87L1359.75 453.41H1411.13L1668.12 781.7Z" fill="#E6E6E6"/>
<path d="M1783.72 850.16H1840.05L1838.78 848.54L1527.88 451.41H1471.55L1472.82 453.03L1783.72 850.16ZM1835.95 848.16H1784.7L1475.66 453.41H1526.91L1835.95 848.16Z" fill="#E6E6E6"/>
<path d="M2247.24 850.18H2303.57L2043.45 517.89H1986.99L2247.24 850.18ZM2299.47 848.18H2248.22L1991.1 519.89H2042.48L2299.47 848.18Z" fill="#E6E6E6"/>
<path d="M2383.82 783.7H2440.15L2180.03 451.41H2123.57L2383.82 783.7ZM2436.05 781.7H2384.8L2127.68 453.41H2179.06L2436.05 781.7Z" fill="#E6E6E6"/>
</g>
</g>
</g>
</mask>
<g mask="url(#mask0_113_3172)">
<ellipse cx="789" cy="408" rx="789" ry="408" transform="matrix(-1 0 0 1 1455 -135)" fill="url(#paint0_radial_113_3172)"/>
</g>
<defs>
<radialGradient id="paint0_radial_113_3172" cx="0" cy="0" r="1" gradientUnits="userSpaceOnUse" gradientTransform="translate(789 408) rotate(90) scale(408 789)">
<stop stop-color="#C5CED3"/>
<stop offset="1" stop-color="#ECECEC"/>
</radialGradient>
<clipPath id="clip0_113_3172">
<rect width="2188" height="890" fill="white" transform="matrix(-1 0 0 1 2188 0)"/>
</clipPath>
</defs>
</svg>
