<svg width="41" height="51" viewBox="0 0 41 51" fill="none" xmlns="http://www.w3.org/2000/svg">
<path d="M7.07196 47.0669H19.3937C18.0921 45.8717 17.0725 44.3941 16.4651 42.7426H7.46243C5.37989 42.7426 4.33862 41.6779 4.33862 39.6787V7.43161C4.33862 5.4542 5.37989 4.32424 7.46243 4.32424H29.828C31.8455 4.32424 32.9519 5.43247 32.9519 7.43161V26.2062C34.6005 26.8147 36.0757 27.836 37.2688 29.1398V7.14913C37.2688 2.43375 34.8608 0 30.1968 0H7.07196C2.42963 0 0 2.45548 0 7.14913V39.9178C0 44.6331 2.42963 47.0669 7.07196 47.0669ZM10.7381 13.1683H26.5741C27.355 13.1683 27.9407 12.5599 27.9407 11.7776C27.9407 11.017 27.355 10.4086 26.5741 10.4086H10.7381C9.93545 10.4086 9.34974 11.017 9.34974 11.7776C9.34974 12.5599 9.93545 13.1683 10.7381 13.1683ZM10.7381 20.5782H26.5741C27.355 20.5782 27.9407 19.9697 27.9407 19.1875C27.9407 18.4269 27.355 17.8185 26.5741 17.8185H10.7381C9.93545 17.8185 9.34974 18.4269 9.34974 19.1875C9.34974 19.9697 9.93545 20.5782 10.7381 20.5782ZM27.7455 47.0669C29.5894 47.0669 31.3032 46.5454 32.7566 45.6545L37.3773 50.2829C37.8979 50.8044 38.4185 51 39.0476 51C40.154 51 41 50.1308 41 48.9357C41 48.4141 40.7614 47.8709 40.3492 47.458L35.7069 42.7861C36.7048 41.2868 37.2905 39.4614 37.2905 37.5275C37.2905 32.2471 33.0169 27.9663 27.7455 27.9663C22.4958 27.9663 18.2005 32.2689 18.2005 37.5275C18.2005 42.7861 22.4958 47.0669 27.7455 47.0669ZM27.7455 43.764C24.2963 43.764 21.4979 40.9608 21.4979 37.5275C21.4979 34.1159 24.2963 31.291 27.7455 31.291C31.1513 31.291 33.9497 34.1159 33.9497 37.5275C33.9497 40.9608 31.173 43.764 27.7455 43.764Z" fill="#FF3939"/>
</svg>
