<svg width="28" height="28" viewBox="0 0 28 28" fill="none" xmlns="http://www.w3.org/2000/svg">
<path d="M19.6174 5H8.10985C7.02025 5.00131 5.97565 5.43472 5.20519 6.20519C4.43472 6.97565 4.00131 8.02025 4 9.10985L4 18.9735C4.00131 20.0631 4.43472 21.1077 5.20519 21.8781C5.97565 22.6486 7.02025 23.082 8.10985 23.0833H19.6174C20.707 23.082 21.7516 22.6486 22.5221 21.8781C23.2925 21.1077 23.726 20.0631 23.7273 18.9735V9.10985C23.726 8.02025 23.2925 6.97565 22.5221 6.20519C21.7516 5.43472 20.707 5.00131 19.6174 5ZM8.10985 6.64394H19.6174C20.1096 6.64491 20.5902 6.79314 20.9975 7.06956C21.4047 7.34598 21.7199 7.73794 21.9025 8.195L15.6079 14.4905C15.1446 14.9518 14.5174 15.2109 13.8636 15.2109C13.2098 15.2109 12.5827 14.9518 12.1194 14.4905L5.82477 8.195C6.00737 7.73794 6.32257 7.34598 6.7298 7.06956C7.13703 6.79314 7.61767 6.64491 8.10985 6.64394ZM19.6174 21.4394H8.10985C7.45585 21.4394 6.82864 21.1796 6.36619 20.7171C5.90374 20.2547 5.64394 19.6275 5.64394 18.9735V10.3428L10.9572 15.6527C11.7287 16.4223 12.7739 16.8545 13.8636 16.8545C14.9534 16.8545 15.9986 16.4223 16.7701 15.6527L22.0833 10.3428V18.9735C22.0833 19.6275 21.8235 20.2547 21.3611 20.7171C20.8986 21.1796 20.2714 21.4394 19.6174 21.4394Z" fill="#667185"/>
</svg>
