<svg width="29" height="29" viewBox="0 0 29 29" fill="none" xmlns="http://www.w3.org/2000/svg">
<path d="M19.8191 5.5H8.31151C7.22191 5.50131 6.17731 5.93472 5.40685 6.70519C4.63639 7.47565 4.20297 8.52025 4.20166 9.60985L4.20166 19.4735C4.20297 20.5631 4.63639 21.6077 5.40685 22.3781C6.17731 23.1486 7.22191 23.582 8.31151 23.5833H19.8191C20.9087 23.582 21.9533 23.1486 22.7237 22.3781C23.4942 21.6077 23.9276 20.5631 23.9289 19.4735V9.60985C23.9276 8.52025 23.4942 7.47565 22.7237 6.70519C21.9533 5.93472 20.9087 5.50131 19.8191 5.5ZM8.31151 7.14394H19.8191C20.3113 7.14491 20.7919 7.29314 21.1991 7.56956C21.6064 7.84598 21.9216 8.23794 22.1042 8.695L15.8095 14.9905C15.3463 15.4518 14.7191 15.7109 14.0653 15.7109C13.4115 15.7109 12.7843 15.4518 12.3211 14.9905L6.02643 8.695C6.20903 8.23794 6.52423 7.84598 6.93146 7.56956C7.33869 7.29314 7.81933 7.14491 8.31151 7.14394ZM19.8191 21.9394H8.31151C7.65751 21.9394 7.0303 21.6796 6.56785 21.2171C6.1054 20.7547 5.8456 20.1275 5.8456 19.4735V10.8428L11.1588 16.1527C11.9303 16.9223 12.9756 17.3545 14.0653 17.3545C15.155 17.3545 16.2003 16.9223 16.9718 16.1527L22.285 10.8428V19.4735C22.285 20.1275 22.0252 20.7547 21.5627 21.2171C21.1003 21.6796 20.4731 21.9394 19.8191 21.9394Z" fill="white"/>
</svg>
