<svg width="28" height="28" viewBox="0 0 28 28" fill="none" xmlns="http://www.w3.org/2000/svg">
<path d="M22.3611 5.27662C22.7361 5.64545 22.7361 6.24344 22.3611 6.61227L6.99691 21.7234C6.62191 22.0922 6.0139 22.0922 5.63889 21.7234C5.26389 21.3545 5.26389 20.7566 5.63889 20.3877L21.0031 5.27662C21.3781 4.90779 21.9861 4.90779 22.3611 5.27662Z" fill="#949DA3"/>
<path d="M17.6486 7.24026C16.567 6.73931 15.3475 6.41667 14 6.41667C11.1729 6.41667 8.90943 7.83682 7.30082 9.34414C5.68851 10.8549 4.64234 12.5364 4.22821 13.2637C3.95682 13.7404 3.9245 14.3095 4.14727 14.815C4.30284 15.1681 4.56742 15.7149 4.95738 16.3496C5.23168 16.796 5.822 16.9392 6.27589 16.6694C6.72979 16.3996 6.87537 15.819 6.60107 15.3726C6.28742 14.8622 6.06978 14.4207 5.93777 14.1275C6.3274 13.4521 7.25017 12.0005 8.62558 10.7117C10.0463 9.38049 11.8587 8.30556 14 8.30556C14.7702 8.30556 15.4978 8.44462 16.18 8.68464L17.6486 7.24026Z" fill="#949DA3"/>
<path d="M19.4644 10.7969C20.7901 12.0639 21.6812 13.467 22.0622 14.1275C21.9302 14.4207 21.7126 14.8622 21.3989 15.3726C21.1246 15.819 21.2702 16.3996 21.7241 16.6694C22.178 16.9392 22.7683 16.796 23.0426 16.3496C23.4326 15.7149 23.6972 15.168 23.8527 14.815C24.0755 14.3095 24.0432 13.7403 23.7718 13.2637C23.3683 12.5551 22.3649 10.9409 20.8226 9.46113L19.4644 10.7969Z" fill="#949DA3"/>
<path d="M14 9.72222C14.349 9.72222 14.6893 9.75884 15.0171 9.82838L13.041 11.7719C12.2215 12.0564 11.5719 12.6952 11.2827 13.5013L9.30663 15.4448C9.23593 15.1223 9.1987 14.7877 9.1987 14.4444C9.1987 11.8364 11.3483 9.72222 14 9.72222Z" fill="#949DA3"/>
<path d="M14 17.2778C13.6631 17.2778 13.3397 17.2209 13.0391 17.1163L11.5977 18.534C12.3043 18.9364 13.1248 19.1667 14 19.1667C16.6517 19.1667 18.8013 17.0525 18.8013 14.4444C18.8013 13.5837 18.5672 12.7767 18.1581 12.0817L16.7167 13.4994C16.823 13.795 16.8808 14.1131 16.8808 14.4444C16.8808 16.0093 15.591 17.2778 14 17.2778Z" fill="#949DA3"/>
</svg>
