<svg width="28" height="28" viewBox="0 0 28 28" fill="none" xmlns="http://www.w3.org/2000/svg">
<path d="M6.60107 16.94C6.87537 17.3856 6.72979 17.9652 6.27589 18.2345C5.822 18.5038 5.23168 18.3608 4.95738 17.9152C4.56742 17.2817 4.30284 16.7358 4.14727 16.3834C3.9245 15.8788 3.95682 15.3106 4.22821 14.8348C4.64234 14.1088 5.68851 12.4303 7.30082 10.9223C8.90943 9.41762 11.1729 8 14 8C16.8271 8 19.0906 9.41762 20.6992 10.9223C22.3115 12.4303 23.3577 14.1088 23.7718 14.8348C24.0432 15.3106 24.0755 15.8788 23.8527 16.3834C23.6972 16.7358 23.4326 17.2817 23.0426 17.9152C22.7683 18.3608 22.178 18.5038 21.7241 18.2345C21.2702 17.9652 21.1246 17.3856 21.3989 16.94C21.7126 16.4305 21.9302 15.9898 22.0622 15.6971C21.6726 15.0229 20.7498 13.5739 19.3744 12.2874C17.9537 10.9585 16.1413 9.88552 14 9.88552C11.8587 9.88552 10.0463 10.9585 8.62558 12.2874C7.25017 13.5739 6.3274 15.0229 5.93777 15.6971C6.06978 15.9898 6.28742 16.4305 6.60107 16.94Z" fill="#949DA3"/>
<path fill-rule="evenodd" clip-rule="evenodd" d="M14 11.2997C11.3483 11.2997 9.19868 13.4101 9.19868 16.0135C9.19868 18.6168 11.3483 20.7273 14 20.7273C16.6517 20.7273 18.8013 18.6168 18.8013 16.0135C18.8013 13.4101 16.6517 11.2997 14 11.2997ZM11.1192 16.0135C11.1192 14.4515 12.409 13.1852 14 13.1852C15.591 13.1852 16.8808 14.4515 16.8808 16.0135C16.8808 17.5755 15.591 18.8418 14 18.8418C12.409 18.8418 11.1192 17.5755 11.1192 16.0135Z" fill="#949DA3"/>
</svg>
