<svg width="48" height="34" viewBox="0 0 48 34" fill="none" xmlns="http://www.w3.org/2000/svg">
<path d="M37.661 18.9949H39.1629C39.7499 18.9949 40.2161 18.6324 40.3369 18.0454L40.7513 16.388C40.9584 16.319 41.2001 16.2327 41.4073 16.1118L42.8748 17.0096C43.3582 17.303 43.9279 17.303 44.3767 16.8542L45.3953 15.8011C45.8097 15.3867 45.8442 14.817 45.5162 14.2818L44.653 12.8316C44.7911 12.6244 44.8429 12.4345 44.9292 12.2274L46.5866 11.813C47.1735 11.6749 47.5534 11.226 47.5534 10.6391V9.15433C47.5534 8.58461 47.1563 8.15301 46.5866 8.01489L44.9465 7.60055C44.8601 7.34159 44.7566 7.15168 44.6702 6.97904L45.5852 5.47705C45.896 4.99365 45.8442 4.37214 45.4299 3.97506L44.3595 2.95647C43.9451 2.54213 43.3754 2.45581 42.892 2.7493L41.4073 3.68157C41.1656 3.54346 40.9584 3.49166 40.7513 3.40534L40.3369 1.71345C40.1988 1.14373 39.7499 0.763916 39.1629 0.763916H37.661C37.074 0.763916 36.6078 1.16099 36.487 1.73071L36.1072 3.38808C35.8309 3.4744 35.6238 3.54346 35.3993 3.68157L33.9319 2.7493C33.4657 2.47307 32.8788 2.54213 32.4644 2.95647L31.4286 3.97506C31.0142 4.3894 30.9106 4.97639 31.2214 5.47705L32.1537 6.97904C32.0673 7.15168 31.981 7.37612 31.8774 7.60055L30.2373 8.01489C29.6676 8.15301 29.2878 8.60188 29.2878 9.15433V10.6391C29.2878 11.226 29.6676 11.6749 30.2373 11.813L31.912 12.2274C31.9983 12.4345 32.0846 12.6244 32.1709 12.8316L31.3077 14.2991C30.997 14.817 31.0315 15.404 31.4458 15.8011L32.4644 16.8542C32.8788 17.303 33.4657 17.303 33.9491 17.0096L35.4339 16.1118C35.6756 16.2499 35.8827 16.319 36.1072 16.388L36.487 18.0454C36.6078 18.6151 37.074 18.9949 37.661 18.9949ZM6.37817 33.7559H35.0195C38.3515 33.7559 40.2851 31.8223 40.2851 28.1277V21.0667C39.3529 21.2738 37.9544 21.2911 36.8495 21.0667V27.8342C36.8495 29.4916 35.9691 30.3203 34.3808 30.3203H6.60261C5.0143 30.3203 4.13382 29.4916 4.13382 27.817V14.7134H28.2692C27.7858 13.7811 27.4233 12.7626 27.2506 11.6922H4.13382V7.37612C4.13382 5.80507 5.0143 4.97639 6.55082 4.97639H9.83102C11.0568 4.97639 11.7819 5.26988 12.7659 6.06403L13.7327 6.87545C14.9412 7.84225 15.8735 8.18753 17.6862 8.18753H27.2679C27.406 6.96177 27.6822 5.89139 28.2692 4.73469H18.6012C17.3582 4.73469 16.6159 4.45846 15.6491 3.66431L14.6823 2.87015C13.4565 1.86883 12.5588 1.54081 10.746 1.54081H5.86025C2.61457 1.54081 0.698242 3.43987 0.698242 7.08262V28.1277C0.698242 31.8395 2.6491 33.7559 6.37817 33.7559ZM38.4206 12.7453C36.8323 12.7453 35.572 11.4677 35.572 9.89669C35.572 8.32565 36.8323 7.0481 38.4206 7.03083C39.9744 6.9963 41.2864 8.32565 41.2864 9.89669C41.2864 11.4677 39.9744 12.7453 38.4206 12.7453Z" fill="#FF3939"/>
</svg>
