<svg width="22" height="22" viewBox="0 0 22 22" fill="none" xmlns="http://www.w3.org/2000/svg">
<path d="M19.5798 9.28631H18.875V9.25H11V12.75H15.9451C15.2236 14.7874 13.2851 16.25 11 16.25C8.10069 16.25 5.75 13.8993 5.75 11C5.75 8.10069 8.10069 5.75 11 5.75C12.3383 5.75 13.5559 6.25487 14.4829 7.07956L16.9579 4.60462C15.3951 3.14819 13.3048 2.25 11 2.25C6.16781 2.25 2.25 6.16781 2.25 11C2.25 15.8322 6.16781 19.75 11 19.75C15.8322 19.75 19.75 15.8322 19.75 11C19.75 10.4133 19.6896 9.84063 19.5798 9.28631Z" fill="#FFC107"/>
<path d="M3.25977 6.92731L6.13458 9.03562C6.91245 7.10975 8.79633 5.75 11.0009 5.75C12.3392 5.75 13.5568 6.25487 14.4838 7.07956L16.9588 4.60462C15.396 3.14819 13.3056 2.25 11.0009 2.25C7.64002 2.25 4.72539 4.14744 3.25977 6.92731Z" fill="#FF3D00"/>
<path d="M11.0006 19.7501C13.2607 19.7501 15.3144 18.8851 16.8671 17.4786L14.1589 15.1869C13.2804 15.8524 12.1884 16.2501 11.0006 16.2501C8.72475 16.2501 6.79231 14.7989 6.06431 12.7737L3.21094 14.9721C4.65906 17.8058 7.59994 19.7501 11.0006 19.7501Z" fill="#4CAF50"/>
<path d="M19.5798 9.28631H18.875V9.25H11V12.75H15.9451C15.5986 13.7287 14.969 14.5726 14.157 15.1873L14.1583 15.1864L16.8664 17.4781C16.6748 17.6522 19.75 15.375 19.75 11C19.75 10.4133 19.6896 9.84063 19.5798 9.28631Z" fill="#1976D2"/>
</svg>
