<svg width="744" height="572" viewBox="0 0 744 572" fill="none" xmlns="http://www.w3.org/2000/svg">
<path d="M275.256 326.422C275.256 250.968 213.829 189.802 138.055 189.802C62.2817 189.802 0.855225 250.968 0.855225 326.422C0.855225 401.874 62.2817 463.04 138.055 463.04C213.829 463.04 275.256 401.874 275.256 326.422Z" fill="#FAFAFA" stroke="#A4BBB7" stroke-width="0.8" stroke-miterlimit="10"/>
<path d="M243.527 10.8766L136.45 51.5093C126.441 55.307 121.405 66.5052 125.2 76.521L165.802 183.678C169.597 193.693 180.787 198.734 190.795 194.937L297.873 154.304C307.881 150.506 312.918 139.308 309.122 129.292L268.52 22.1351C264.725 12.1193 253.535 7.07872 243.527 10.8766Z" fill="#FAFAFA" stroke="#A4BBB7" stroke-width="0.8" stroke-miterlimit="10"/>
<path d="M730.326 37.1522C736.835 37.1522 742.111 31.8717 742.111 25.3579C742.111 18.844 736.835 13.5635 730.326 13.5635C723.817 13.5635 718.54 18.844 718.54 25.3579C718.54 31.8717 723.817 37.1522 730.326 37.1522Z" fill="white" stroke="#A4BBB7" stroke-width="0.8" stroke-miterlimit="10"/>
<path d="M691.615 37.1522C698.124 37.1522 703.401 31.8717 703.401 25.3579C703.401 18.844 698.124 13.5635 691.615 13.5635C685.106 13.5635 679.83 18.844 679.83 25.3579C679.83 31.8717 685.106 37.1522 691.615 37.1522Z" fill="white" stroke="#A4BBB7" stroke-width="0.8" stroke-miterlimit="10"/>
<path d="M652.908 37.1522C659.417 37.1522 664.693 31.8717 664.693 25.3579C664.693 18.844 659.417 13.5635 652.908 13.5635C646.399 13.5635 641.122 18.844 641.122 25.3579C641.122 31.8717 646.399 37.1522 652.908 37.1522Z" fill="white" stroke="#A4BBB7" stroke-width="0.8" stroke-miterlimit="10"/>
<path d="M435.872 436.628H228.527C210.564 436.628 196.003 451.201 196.003 469.177V524.781C196.003 542.757 210.564 557.33 228.527 557.33H435.872C453.834 557.33 468.396 542.757 468.396 524.781V469.177C468.396 451.201 453.834 436.628 435.872 436.628Z" fill="#FAFAFA" stroke="#A4BBB7" stroke-width="0.8" stroke-miterlimit="10"/>
<path d="M598.186 328.464C598.21 323.913 602.685 320.046 607.647 321.588L714.443 355.158C718.209 356.333 719.676 360.1 718.772 363.258L714.835 388.997C714.297 392.349 712.023 395.164 708.869 396.387L692.488 402.747L672.122 410.651C670.752 411.19 669.676 412.218 669.065 413.539L655.227 443.976C651.731 450.338 642.587 450.289 639.139 443.903L599.018 358.192C597.795 355.599 597.233 352.736 597.33 349.873L598.186 328.464Z" fill="#FAFAFA" stroke="#A4BBB7" stroke-width="1.8" stroke-miterlimit="10" stroke-linejoin="round"/>
<path d="M670.118 384.519L656.621 408.987C653.125 415.349 643.981 415.3 640.534 408.914L599.068 331.988C595.962 326.237 601.415 319.631 607.649 321.588L714.445 355.158C720.459 357.042 720.582 365.532 714.615 367.612L673.174 381.95C671.878 382.391 670.778 383.32 670.093 384.545L670.118 384.519Z" fill="#FAFAFA" stroke="#A4BBB7" stroke-width="1.8" stroke-miterlimit="10" stroke-linejoin="round"/>
<path d="M669.822 412.338L671.973 382.513" stroke="#A4BBB7" stroke-miterlimit="10" stroke-linejoin="round"/>
<path d="M655.251 443.951L659.481 403.629" stroke="#A4BBB7" stroke-miterlimit="10" stroke-linejoin="round"/>
<path d="M639.164 443.877L638.211 404.9" stroke="#A4BBB7" stroke-miterlimit="10" stroke-linejoin="round"/>
<path d="M678.085 193.863L642.942 249.554C639.236 255.488 632.735 259.103 625.722 259.103H553.307C546.294 259.122 539.795 255.488 536.088 249.554L501.306 193.863C497.182 187.262 497.182 178.912 501.287 172.33L536.43 116.639C540.155 110.685 546.637 107.071 553.631 107.071H626.065C633.078 107.071 639.577 110.685 643.284 116.601L678.066 172.33C682.19 178.912 682.19 187.281 678.085 193.863Z" fill="#FAFAFA" stroke="#A4BBB7" stroke-width="1.8" stroke-miterlimit="10"/>
<path d="M629.808 127.746C631.044 125.787 633.095 125.559 633.913 125.559C634.749 125.559 636.783 125.768 638.019 127.746L640.356 131.512V131.436L667.992 175.696C670.805 180.204 670.805 186.025 667.992 190.514L655.01 211.189L637.657 238.693C636.422 240.651 634.521 240.881 633.761 240.862C632.982 240.862 631.063 240.651 629.827 238.674L599.854 190.647C597.04 186.158 597.021 180.357 599.778 175.831L629.808 127.746Z" fill="#FAFAFA" stroke="#A4BBB7" stroke-miterlimit="10"/>
<path d="M194.667 336.638C194.469 331.463 195.85 326.248 198.693 321.686L369.711 47.7742C374.605 39.933 383.171 35.1926 392.408 35.1926H487.893C497.13 35.1926 505.715 39.9528 510.61 47.7742L514.203 53.5416L515.485 55.5957L533.604 84.5907L556.478 121.21C559.182 125.555 560.544 130.473 560.544 135.411C560.544 140.329 559.182 145.267 556.478 149.613L412.717 379.834L389.112 417.638L389.032 417.777L385.48 423.504C380.585 431.325 372 436.086 362.763 436.086H267.257C258.02 436.086 249.435 431.306 244.54 423.504L219.889 384.021L198.693 350.049C196.126 345.94 194.764 341.318 194.667 336.638Z" fill="#FAFAFA" stroke="#A4BBB7" stroke-width="1.8"/>
<path d="M376.143 408.83C375.097 408.83 372.472 408.534 370.794 405.868L350.19 372.863L334.479 348.273L331.558 343.612C329.742 340.708 328.736 337.37 328.657 334.012C328.538 330.161 329.545 326.447 331.558 323.209L408.392 200.157L493.951 63.0237C495.629 60.3375 498.274 60.0413 499.32 60.0413C500.365 60.0413 503.01 60.3375 504.688 63.0237L505.931 65.0185L543.983 125.24C547.852 131.442 547.852 139.461 543.983 145.663L381.551 405.73L381.471 405.868C379.794 408.534 377.189 408.83 376.124 408.83H376.143Z" stroke="#A4BBB7" stroke-miterlimit="10"/>
</svg>
