<svg width="40" height="40" viewBox="0 0 40 40" fill="none" xmlns="http://www.w3.org/2000/svg">
<rect x="0.5" y="0.5" width="39" height="39" rx="7.5" stroke="#EBEBEB"/>
<path d="M19.3004 32.1973C19.7239 32.5752 20.3038 32.6224 20.7088 32.2068L23.553 29.2877C23.9488 28.8814 23.9304 28.2485 23.5438 27.8423L22.1907 26.4536L24.1973 24.3941C24.5839 23.9974 24.5839 23.355 24.1881 22.9488L22.3564 21.0594C24.8509 19.784 26.25 17.6585 26.25 15.155C26.25 11.6124 23.461 8.75 20 8.75C16.5298 8.75 13.75 11.603 13.75 15.155C13.75 17.6963 15.1583 19.973 17.4043 21.0121V29.8734C17.4043 30.2135 17.5055 30.6008 17.7909 30.8559L19.3004 32.1973ZM20 30.5158L19.0059 29.4955V19.7651C16.9072 19.2928 15.4068 17.4034 15.4068 15.155C15.4068 12.5571 17.4503 10.4599 20 10.4599C22.5497 10.4599 24.5839 12.5571 24.5839 15.155C24.5839 17.3845 23.0744 19.3022 20.7732 19.8218V21.8718L22.5405 23.6856L20.6535 25.5845V27.2944L21.8962 28.5508L20 30.5158ZM20 15.2117C20.9021 15.2117 21.6384 14.456 21.6384 13.5302C21.6384 12.6044 20.9021 11.8486 20 11.8486C19.0887 11.8486 18.3616 12.5949 18.3616 13.5302C18.3616 14.456 19.0979 15.2117 20 15.2117Z" fill="#667185"/>
</svg>
