<svg width="203" height="59" viewBox="0 0 203 59" fill="none" xmlns="http://www.w3.org/2000/svg">
<g clip-path="url(#clip0_1_657)">
<path d="M30.7521 29.5439H19.5284L14.0099 18.5969L8.54883 7.76294H19.7725L25.2336 18.5969L30.7521 29.5439Z" fill="#323232"/>
<path d="M30.5152 51.2366H19.2916L8.31201 29.5439H19.5357L19.7009 29.8725L30.5152 51.2366Z" fill="#323232"/>
<path d="M53.0526 51.226H41.8289L30.7524 29.5439H41.9761L47.2469 40L53.0526 51.226Z" fill="#323232"/>
<path d="M68.8652 24.2347C68.8652 33.1329 61.6951 40.385 52.7298 40.6958L47.276 29.5439H52.123C55.2862 29.5439 57.8534 27.3503 57.8534 24.2347C57.8534 21.1191 55.2862 18.5969 52.123 18.5969H30.4153L24.7783 7.76294H52.123C59.2393 7.76294 65.3179 12.1326 67.7414 18.2896C68.4667 20.1335 68.8652 22.1364 68.8652 24.2347Z" fill="#323232"/>
</g>
<path d="M82.7867 10.9942H91.5885C92.9228 10.9942 94.0183 11.1648 94.875 11.5059C95.7316 11.8471 96.3685 12.3854 96.7854 13.1207C97.21 13.8485 97.4222 14.7962 97.4222 15.9637V16.8393C97.4222 17.9841 97.2138 18.9166 96.7968 19.6368C96.3798 20.3494 95.743 20.8763 94.8863 21.2175C94.0372 21.551 92.938 21.7178 91.5885 21.7178H86.5735V27.8813H82.7867V10.9942ZM91.1223 18.7043C91.6833 18.7043 92.1381 18.6512 92.4869 18.5451C92.8432 18.4314 93.1161 18.2229 93.3057 17.9196C93.4952 17.6088 93.5899 17.1653 93.5899 16.5891V16.2252C93.5899 15.6491 93.4952 15.2094 93.3057 14.9061C93.1161 14.6029 92.8432 14.3982 92.4869 14.292C92.1381 14.1783 91.6833 14.1215 91.1223 14.1215H86.5735V18.7043H91.1223ZM99.2531 15.7704H102.756V17.4307C103.097 16.8696 103.574 16.4299 104.188 16.1115C104.81 15.7855 105.534 15.6225 106.36 15.6225H107.407V18.9658H106.053C105.227 18.9658 104.583 19.0606 104.12 19.2501C103.658 19.4321 103.332 19.7126 103.142 20.0917C102.953 20.4707 102.858 20.9787 102.858 21.6155V27.8813H99.2531V15.7704ZM114.821 28.1315C113.161 28.1315 111.88 27.9572 110.977 27.6084C110.075 27.2521 109.431 26.6456 109.044 25.7889C108.658 24.9323 108.464 23.7079 108.464 22.1158V21.5245C108.464 19.9628 108.658 18.7574 109.044 17.9083C109.431 17.0516 110.075 16.4451 110.977 16.0888C111.887 15.7249 113.168 15.5429 114.821 15.5429C116.466 15.5429 117.74 15.7249 118.642 16.0888C119.552 16.4451 120.204 17.0516 120.598 17.9083C120.992 18.7574 121.189 19.9628 121.189 21.5245V22.1158C121.189 23.7079 120.992 24.9323 120.598 25.7889C120.211 26.6456 119.563 27.2521 118.653 27.6084C117.751 27.9572 116.474 28.1315 114.821 28.1315ZM112.115 22.0817C112.115 23.0294 112.179 23.7306 112.308 24.1855C112.437 24.6404 112.687 24.9626 113.058 25.1521C113.438 25.3341 114.029 25.425 114.832 25.425C115.629 25.425 116.212 25.3341 116.584 25.1521C116.963 24.9626 117.217 24.6404 117.346 24.1855C117.482 23.7231 117.55 23.0218 117.55 22.0817V21.5359C117.55 20.5958 117.486 19.9021 117.357 19.4548C117.228 19.0075 116.974 18.6967 116.595 18.5223C116.224 18.3404 115.636 18.2494 114.832 18.2494C114.029 18.2494 113.438 18.3404 113.058 18.5223C112.687 18.6967 112.437 19.0075 112.308 19.4548C112.179 19.9021 112.115 20.5958 112.115 21.5359V22.0817ZM127.956 28.1315C126.773 28.1315 125.81 27.9534 125.067 27.5971C124.332 27.2332 123.775 26.6191 123.395 25.7548C123.024 24.8906 122.838 23.7079 122.838 22.2068V21.4222C122.838 20.0045 123.009 18.8711 123.35 18.022C123.699 17.1653 124.245 16.5399 124.988 16.1456C125.738 15.7438 126.727 15.5429 127.956 15.5429C128.911 15.5429 129.699 15.6415 130.321 15.8386C130.943 16.0281 131.42 16.3276 131.754 16.737V10.9942H135.336V27.8813H131.822V26.8351C131.466 27.29 130.973 27.6198 130.344 27.8245C129.722 28.0292 128.926 28.1315 127.956 28.1315ZM126.489 21.9907C126.489 22.9536 126.557 23.6738 126.693 24.1514C126.83 24.6214 127.084 24.9512 127.455 25.1407C127.827 25.3303 128.395 25.425 129.161 25.425C129.881 25.425 130.423 25.3303 130.787 25.1407C131.159 24.9512 131.42 24.6176 131.572 24.14C131.723 23.6548 131.799 22.9384 131.799 21.9907V21.6496C131.799 20.7019 131.723 19.9931 131.572 19.5231C131.428 19.0454 131.17 18.7157 130.799 18.5337C130.435 18.3442 129.889 18.2494 129.161 18.2494C128.388 18.2494 127.815 18.3442 127.444 18.5337C127.08 18.7157 126.83 19.0417 126.693 19.5117C126.557 19.9741 126.489 20.6868 126.489 21.6496V21.9907ZM142.034 28.0974C141.01 28.0974 140.188 27.961 139.566 27.688C138.945 27.4075 138.49 26.9792 138.202 26.403C137.921 25.8193 137.781 25.0649 137.781 24.14V15.7704H141.386V23.1166C141.386 23.6397 141.443 24.0453 141.556 24.3333C141.67 24.6138 141.871 24.8147 142.159 24.936C142.455 25.0573 142.883 25.118 143.444 25.118C144.119 25.118 144.638 25.046 145.002 24.9019C145.373 24.7503 145.631 24.5229 145.775 24.2196C145.927 23.9164 146.003 23.5032 146.003 22.9801V15.7704H149.596V27.8813H146.094V26.6646C145.745 27.1649 145.241 27.5288 144.581 27.7563C143.922 27.9837 143.072 28.0974 142.034 28.0974ZM157.852 28.1315C156.252 28.1315 155.013 27.9572 154.133 27.6084C153.262 27.2597 152.636 26.6646 152.257 25.823C151.878 24.974 151.689 23.7685 151.689 22.2068V21.4108C151.689 19.8945 151.882 18.7157 152.269 17.8742C152.663 17.0326 153.3 16.4337 154.179 16.0774C155.066 15.7211 156.29 15.5429 157.852 15.5429C159.323 15.5429 160.49 15.6983 161.355 16.0092C162.226 16.32 162.859 16.7938 163.254 17.4307C163.648 18.0599 163.864 18.8825 163.902 19.8983L163.936 20.6489H160.411L160.377 20.1826C160.346 19.6974 160.263 19.3222 160.126 19.0568C159.998 18.7839 159.759 18.583 159.41 18.4541C159.061 18.3177 158.546 18.2494 157.863 18.2494C157.098 18.2494 156.537 18.3404 156.18 18.5223C155.824 18.7043 155.585 19.0265 155.464 19.4889C155.343 19.9438 155.282 20.6602 155.282 21.6382V21.9907C155.282 22.9763 155.343 23.7041 155.464 24.1741C155.585 24.6366 155.824 24.9626 156.18 25.1521C156.537 25.3341 157.098 25.425 157.863 25.425C158.568 25.425 159.092 25.3644 159.433 25.2431C159.781 25.1142 160.016 24.9133 160.138 24.6404C160.259 24.3599 160.339 23.9429 160.377 23.3895L160.411 22.9346H163.936L163.902 23.5714C163.841 24.7314 163.61 25.6373 163.208 26.2893C162.814 26.9413 162.192 27.4113 161.343 27.6994C160.494 27.9875 159.33 28.1315 157.852 28.1315ZM170.679 27.8813C169.429 27.8813 168.492 27.5819 167.871 26.983C167.257 26.3765 166.95 25.4554 166.95 24.2196V18.4882H164.971V15.7704H166.984V13.1435H170.532V15.7704H173.977V18.4882H170.532V23.4009C170.532 23.7799 170.57 24.068 170.645 24.2651C170.729 24.4622 170.884 24.6063 171.112 24.6972C171.339 24.7806 171.676 24.8223 172.124 24.8223H174.353V27.8813H170.679Z" fill="#323232"/>
<path d="M87.2445 36.6754H81.7633V33.389H96.4556V36.6754H90.9972V50.2761H87.2445V36.6754ZM96.3647 38.1651H99.8672V39.8254C100.208 39.2644 100.686 38.8247 101.3 38.5063C101.922 38.1803 102.646 38.0173 103.472 38.0173H104.518V41.3606H103.165C102.339 41.3606 101.694 41.4554 101.232 41.6449C100.769 41.8269 100.443 42.1074 100.254 42.4864C100.064 42.8655 99.9695 43.3734 99.9695 44.0103V50.2761H96.3647V38.1651ZM109.567 50.4581C108.514 50.4581 107.683 50.3368 107.077 50.0942C106.478 49.8516 106.05 49.4801 105.792 48.9797C105.542 48.4718 105.417 47.8009 105.417 46.9669V46.8191C105.417 45.9169 105.561 45.2195 105.849 44.7267C106.144 44.2263 106.614 43.8548 107.259 43.6122C107.911 43.3696 108.84 43.1839 110.045 43.055L111.955 42.8503C112.418 42.8048 112.77 42.748 113.013 42.6798C113.256 42.6039 113.426 42.5016 113.525 42.3727C113.631 42.2438 113.684 42.0619 113.684 41.8269V41.679C113.684 41.4061 113.62 41.1863 113.491 41.0195C113.362 40.8451 113.127 40.7162 112.786 40.6328C112.452 40.5419 111.978 40.4964 111.364 40.4964C110.803 40.4964 110.367 40.5456 110.056 40.6442C109.753 40.7428 109.537 40.883 109.408 41.065C109.287 41.2393 109.211 41.463 109.181 41.7359L109.147 42.0543H105.735L105.781 41.5312C105.879 40.4395 106.395 39.5752 107.327 38.9384C108.267 38.3016 109.636 37.9832 111.432 37.9832C112.812 37.9832 113.927 38.1272 114.776 38.4153C115.625 38.6958 116.243 39.1166 116.629 39.6776C117.023 40.2386 117.221 40.9474 117.221 41.8041V50.2761H113.752V49.1048C113.396 49.5597 112.873 49.9009 112.183 50.1283C111.501 50.3481 110.629 50.4581 109.567 50.4581ZM108.931 46.7395C108.931 47.0806 108.98 47.3422 109.078 47.5241C109.184 47.6985 109.366 47.8236 109.624 47.8994C109.89 47.9752 110.276 48.0131 110.784 48.0131C111.747 48.0131 112.471 47.835 112.956 47.4787C113.441 47.1223 113.684 46.5651 113.684 45.807V44.6357C113.54 44.7418 113.339 44.829 113.081 44.8973C112.831 44.9579 112.49 45.0186 112.058 45.0792L110.784 45.2384C110.261 45.3066 109.874 45.3862 109.624 45.4772C109.374 45.5682 109.196 45.7009 109.09 45.8752C108.984 46.0496 108.931 46.3112 108.931 46.6599V46.7395ZM119.654 38.1651H123.157V39.3933C123.483 38.9081 123.953 38.548 124.567 38.313C125.181 38.078 125.992 37.9604 127 37.9604C128.63 37.9604 129.824 38.2864 130.582 38.9384C131.341 39.5904 131.72 40.6063 131.72 41.9861V50.2761H128.115V43.0778C128.115 42.5168 128.047 42.0846 127.91 41.7814C127.774 41.4781 127.531 41.2583 127.182 41.1218C126.834 40.9854 126.329 40.9171 125.67 40.9171C125.025 40.9171 124.529 40.9967 124.18 41.1559C123.839 41.3076 123.6 41.5464 123.464 41.8724C123.327 42.1983 123.259 42.6381 123.259 43.1915V50.2761H119.654V38.1651ZM139.214 50.4467C137.705 50.4467 136.549 50.3178 135.745 50.0601C134.949 49.7947 134.403 49.4157 134.108 48.9229C133.812 48.4301 133.645 47.7705 133.607 46.9442L133.585 46.4211H137.042L137.076 46.785C137.099 47.111 137.163 47.3574 137.269 47.5241C137.375 47.6909 137.58 47.816 137.883 47.8994C138.194 47.9828 138.656 48.0245 139.271 48.0245C139.9 48.0245 140.377 47.9828 140.703 47.8994C141.029 47.816 141.245 47.6985 141.352 47.5469C141.465 47.3877 141.522 47.1754 141.522 46.9101V46.7963C141.522 46.4097 141.443 46.1254 141.283 45.9435C141.124 45.7615 140.817 45.6478 140.362 45.6023L137.155 45.2384C136.299 45.1399 135.628 44.9579 135.143 44.6926C134.657 44.4272 134.312 44.0671 134.108 43.6122C133.903 43.1574 133.801 42.566 133.801 41.8382V41.4061C133.801 40.6404 133.964 40.0112 134.29 39.5184C134.623 39.018 135.188 38.6352 135.984 38.3698C136.788 38.1045 137.883 37.9718 139.271 37.9718C140.605 37.9718 141.662 38.1007 142.443 38.3585C143.232 38.6086 143.797 38.9763 144.138 39.4615C144.486 39.9467 144.684 40.5608 144.729 41.3038L144.752 41.7359H141.374L141.352 41.463C141.329 41.2052 141.253 40.9967 141.124 40.8375C141.003 40.6783 140.787 40.557 140.476 40.4736C140.165 40.3902 139.733 40.3485 139.18 40.3485C138.611 40.3485 138.175 40.3902 137.872 40.4736C137.576 40.5494 137.375 40.6631 137.269 40.8148C137.171 40.9664 137.121 41.1673 137.121 41.4175V41.5085C137.121 41.8648 137.205 42.1263 137.371 42.2931C137.538 42.4523 137.853 42.5585 138.315 42.6115L141.261 42.9186C142.155 43.0171 142.872 43.2029 143.41 43.4758C143.948 43.7411 144.342 44.1164 144.593 44.6016C144.85 45.0868 144.979 45.7084 144.979 46.4666V46.9669C144.979 47.7402 144.809 48.3808 144.467 48.8888C144.126 49.3891 143.535 49.7758 142.693 50.0487C141.852 50.314 140.692 50.4467 139.214 50.4467ZM147.845 40.883H145.923V38.1651H147.845L147.879 37.028C147.909 36.2395 148.061 35.5799 148.334 35.0493C148.607 34.5186 149.05 34.1092 149.664 33.8211C150.286 33.533 151.12 33.389 152.166 33.389H154.543V36.05H152.86C152.428 36.05 152.09 36.0879 151.848 36.1637C151.613 36.2395 151.446 36.357 151.347 36.5162C151.256 36.6754 151.211 36.8915 151.211 37.1644V38.1651H154.156V40.883H151.336V50.2761H147.845V40.883ZM161.264 50.5263C159.717 50.5263 158.508 50.3557 157.636 50.0146C156.772 49.6658 156.143 49.0669 155.748 48.2178C155.354 47.3687 155.157 46.1709 155.157 44.6243V43.8397C155.157 42.3386 155.358 41.1635 155.76 40.3144C156.161 39.4577 156.798 38.8475 157.67 38.4836C158.542 38.1197 159.728 37.9377 161.229 37.9377C162.723 37.9377 163.909 38.1121 164.789 38.4608C165.676 38.8095 166.324 39.3895 166.733 40.2007C167.143 41.0043 167.348 42.1112 167.348 43.5213V45.1702H158.705V45.3635C158.705 46.0761 158.773 46.6144 158.91 46.9783C159.046 47.3422 159.292 47.6 159.649 47.7516C160.013 47.8956 160.559 47.9676 161.286 47.9676C161.976 47.9676 162.499 47.9222 162.856 47.8312C163.22 47.7326 163.47 47.5886 163.606 47.3991C163.743 47.2095 163.826 46.948 163.856 46.6144L163.902 46.2505H167.268L167.222 46.8987C167.147 47.7478 166.912 48.4339 166.517 48.957C166.123 49.4801 165.505 49.8743 164.664 50.1397C163.822 50.3974 162.689 50.5263 161.264 50.5263ZM163.925 42.9186V42.6684C163.925 42.0922 163.853 41.6487 163.709 41.3379C163.565 41.0195 163.303 40.792 162.924 40.6556C162.552 40.5115 162.007 40.4395 161.286 40.4395C160.566 40.4395 160.02 40.5153 159.649 40.6669C159.285 40.811 159.035 41.0384 158.898 41.3492C158.769 41.6601 158.705 42.0998 158.705 42.6684V42.9186H163.925ZM169.417 38.1651H172.92V39.8254C173.261 39.2644 173.738 38.8247 174.353 38.5063C174.974 38.1803 175.698 38.0173 176.525 38.0173H177.571V41.3606H176.218C175.391 41.3606 174.747 41.4554 174.284 41.6449C173.822 41.8269 173.496 42.1074 173.306 42.4864C173.117 42.8655 173.022 43.3734 173.022 44.0103V50.2761H169.417V38.1651Z" fill="#323232"/>
<defs>
<clipPath id="clip0_1_657">
<rect width="60.5526" height="43.4737" fill="white" transform="translate(8.31201 7.76294)"/>
</clipPath>
</defs>
</svg>
