<svg width="126" height="36" viewBox="0 0 126 36" fill="none" xmlns="http://www.w3.org/2000/svg">
<g clip-path="url(#clip0_10_599)">
<path d="M15.3062 18.0282H8.07743L4.52314 10.9776L1.00586 3.99976H8.23468L11.752 10.9776L15.3062 18.0282Z" fill="#FF3939"/>
<path d="M15.1539 31.9996H7.92508L0.853516 18.0281H8.08233L8.18871 18.2397L15.1539 31.9996Z" fill="#FF3939"/>
<path d="M29.6695 31.9928H22.4406L15.3066 18.0281H22.5355L25.9302 24.7625L29.6695 31.9928Z" fill="#FF3939"/>
<path d="M39.8539 14.6087C39.8539 20.3397 35.2359 25.0106 29.4617 25.2108L25.949 18.0282H29.0708C31.1081 18.0282 32.7616 16.6153 32.7616 14.6087C32.7616 12.602 31.1081 10.9776 29.0708 10.9776H15.0896L11.459 3.99976H29.0708C33.6542 3.99976 37.5692 6.81409 39.1301 10.7796C39.5973 11.9673 39.8539 13.2573 39.8539 14.6087Z" fill="#FF3939"/>
</g>
<path d="M48.8203 6.62329H54.4893C55.3486 6.62329 56.0542 6.73315 56.606 6.95288C57.1577 7.17261 57.5679 7.51929 57.8364 7.99292C58.1099 8.46167 58.2466 9.07202 58.2466 9.82397V10.3879C58.2466 11.1252 58.1123 11.7258 57.8438 12.1897C57.5752 12.6487 57.165 12.988 56.6133 13.2078C56.0664 13.4226 55.3584 13.53 54.4893 13.53H51.2593V17.4998H48.8203V6.62329ZM54.189 11.5891C54.5503 11.5891 54.8433 11.5549 55.0679 11.4866C55.2974 11.4133 55.4731 11.2791 55.5952 11.0837C55.7173 10.8835 55.7783 10.5979 55.7783 10.2268V9.99243C55.7783 9.62134 55.7173 9.33813 55.5952 9.14282C55.4731 8.94751 55.2974 8.81567 55.0679 8.74731C54.8433 8.67407 54.5503 8.63745 54.189 8.63745H51.2593V11.5891H54.189ZM59.4258 9.69946H61.6816V10.7688C61.9014 10.4075 62.209 10.1243 62.6045 9.91919C63.0049 9.70923 63.4712 9.60425 64.0034 9.60425H64.6772V11.7576H63.8057C63.2734 11.7576 62.8584 11.8186 62.5605 11.9407C62.2627 12.0579 62.0527 12.2385 61.9307 12.4827C61.8086 12.7268 61.7476 13.054 61.7476 13.4641V17.4998H59.4258V9.69946ZM69.4526 17.6609C68.3833 17.6609 67.5581 17.5486 66.9771 17.324C66.396 17.0945 65.981 16.7039 65.7319 16.1521C65.4829 15.6003 65.3584 14.8118 65.3584 13.7864V13.4055C65.3584 12.3997 65.4829 11.6233 65.7319 11.0764C65.981 10.5247 66.396 10.134 66.9771 9.90454C67.563 9.67017 68.3882 9.55298 69.4526 9.55298C70.5122 9.55298 71.3325 9.67017 71.9136 9.90454C72.4995 10.134 72.9194 10.5247 73.1733 11.0764C73.4272 11.6233 73.5542 12.3997 73.5542 13.4055V13.7864C73.5542 14.8118 73.4272 15.6003 73.1733 16.1521C72.9243 16.7039 72.5068 17.0945 71.9209 17.324C71.3398 17.5486 70.5171 17.6609 69.4526 17.6609ZM67.7095 13.7644C67.7095 14.3748 67.751 14.8264 67.834 15.1194C67.917 15.4124 68.0781 15.6199 68.3174 15.7419C68.5615 15.8591 68.9424 15.9177 69.46 15.9177C69.9727 15.9177 70.3486 15.8591 70.5879 15.7419C70.832 15.6199 70.9956 15.4124 71.0786 15.1194C71.1665 14.8215 71.2104 14.3699 71.2104 13.7644V13.4128C71.2104 12.8074 71.1689 12.3606 71.0859 12.0725C71.0029 11.7844 70.8394 11.5842 70.5952 11.4719C70.356 11.3547 69.9775 11.2961 69.46 11.2961C68.9424 11.2961 68.5615 11.3547 68.3174 11.4719C68.0781 11.5842 67.917 11.7844 67.834 12.0725C67.751 12.3606 67.7095 12.8074 67.7095 13.4128V13.7644ZM77.9121 17.6609C77.1504 17.6609 76.5303 17.5461 76.0518 17.3167C75.5781 17.0823 75.2192 16.6868 74.9751 16.1301C74.7358 15.5735 74.6162 14.8118 74.6162 13.845V13.3396C74.6162 12.4265 74.7261 11.6965 74.9458 11.1497C75.1704 10.5979 75.522 10.1951 76.0005 9.94116C76.4839 9.68237 77.1211 9.55298 77.9121 9.55298C78.5273 9.55298 79.0352 9.61646 79.4355 9.74341C79.8359 9.86548 80.1436 10.0583 80.3584 10.322V6.62329H82.6655V17.4998H80.4023V16.8259C80.1729 17.1189 79.8555 17.3313 79.4502 17.4631C79.0498 17.595 78.5371 17.6609 77.9121 17.6609ZM76.9673 13.7058C76.9673 14.3259 77.0112 14.7898 77.0991 15.0974C77.187 15.4001 77.3506 15.6125 77.5898 15.7346C77.8291 15.8567 78.1953 15.9177 78.6885 15.9177C79.1523 15.9177 79.5015 15.8567 79.7358 15.7346C79.9751 15.6125 80.1436 15.3977 80.2412 15.0901C80.3389 14.7776 80.3877 14.3162 80.3877 13.7058V13.4861C80.3877 12.8757 80.3389 12.4192 80.2412 12.1165C80.1484 11.8088 79.9824 11.5964 79.7432 11.4792C79.5088 11.3572 79.1572 11.2961 78.6885 11.2961C78.1904 11.2961 77.8218 11.3572 77.5825 11.4792C77.3481 11.5964 77.187 11.8064 77.0991 12.1091C77.0112 12.407 76.9673 12.866 76.9673 13.4861V13.7058ZM86.9795 17.6389C86.3203 17.6389 85.7905 17.551 85.3901 17.3752C84.9897 17.1946 84.6968 16.9187 84.5112 16.5476C84.3306 16.1716 84.2402 15.6858 84.2402 15.0901V9.69946H86.562V14.4309C86.562 14.7678 86.5986 15.0291 86.6719 15.2146C86.7451 15.3953 86.8745 15.5247 87.0601 15.6028C87.2505 15.6809 87.5264 15.72 87.8877 15.72C88.3223 15.72 88.6567 15.6736 88.8911 15.5808C89.1304 15.4832 89.2964 15.3367 89.3892 15.1414C89.4868 14.946 89.5356 14.6799 89.5356 14.343V9.69946H91.8501V17.4998H89.5942V16.7161C89.3696 17.0383 89.0449 17.2727 88.6201 17.4192C88.1953 17.5657 87.6484 17.6389 86.9795 17.6389ZM97.1675 17.6609C96.1372 17.6609 95.3389 17.5486 94.7725 17.324C94.2109 17.0994 93.8081 16.7161 93.564 16.1741C93.3198 15.6272 93.1978 14.8508 93.1978 13.845V13.3323C93.1978 12.3557 93.3223 11.5964 93.5713 11.0544C93.8252 10.5125 94.2354 10.1267 94.8018 9.89722C95.373 9.66772 96.1616 9.55298 97.1675 9.55298C98.1147 9.55298 98.8667 9.65308 99.4233 9.85327C99.9849 10.0535 100.393 10.3586 100.646 10.7688C100.9 11.1741 101.04 11.7039 101.064 12.3582L101.086 12.8416H98.8154L98.7935 12.5413C98.7739 12.2288 98.7202 11.9871 98.6323 11.8162C98.5493 11.6404 98.3955 11.511 98.1709 11.428C97.9463 11.3401 97.6143 11.2961 97.1748 11.2961C96.6816 11.2961 96.3203 11.3547 96.0908 11.4719C95.8613 11.5891 95.7075 11.7966 95.6294 12.0945C95.5513 12.3875 95.5122 12.8489 95.5122 13.4788V13.7058C95.5122 14.3406 95.5513 14.8093 95.6294 15.1121C95.7075 15.4099 95.8613 15.6199 96.0908 15.7419C96.3203 15.8591 96.6816 15.9177 97.1748 15.9177C97.6289 15.9177 97.9658 15.8787 98.1855 15.8005C98.4102 15.7175 98.5615 15.5881 98.6396 15.4124C98.7178 15.2317 98.769 14.9631 98.7935 14.6067L98.8154 14.3137H101.086L101.064 14.7239C101.025 15.4709 100.876 16.0544 100.617 16.4744C100.363 16.8943 99.9629 17.197 99.416 17.3826C98.8691 17.5681 98.1196 17.6609 97.1675 17.6609ZM105.429 17.4998C104.624 17.4998 104.021 17.3069 103.62 16.9211C103.225 16.5305 103.027 15.9373 103.027 15.1414V11.45H101.752V9.69946H103.049V8.00757H105.334V9.69946H107.553V11.45H105.334V14.614C105.334 14.8582 105.358 15.0437 105.407 15.1707C105.461 15.2976 105.561 15.3904 105.708 15.449C105.854 15.5027 106.071 15.5295 106.359 15.5295H107.795V17.4998H105.429Z" fill="#FF3939"/>
<path d="M51.6914 22.74H48.1611V20.6233H57.624V22.74H54.1084V31.4998H51.6914V22.74ZM57.5654 23.6995H59.8213V24.7688C60.041 24.4075 60.3486 24.1243 60.7441 23.9192C61.1445 23.7092 61.6108 23.6042 62.1431 23.6042H62.8169V25.7576H61.9453C61.4131 25.7576 60.998 25.8186 60.7002 25.9407C60.4023 26.0579 60.1924 26.2385 60.0703 26.4827C59.9482 26.7268 59.8872 27.054 59.8872 27.4641V31.4998H57.5654V23.6995ZM66.0688 31.6169C65.3901 31.6169 64.8555 31.5388 64.4648 31.3826C64.0791 31.2263 63.8032 30.9871 63.6372 30.6648C63.4761 30.3376 63.3955 29.9055 63.3955 29.3684V29.2732C63.3955 28.6921 63.4883 28.2429 63.6738 27.9255C63.8643 27.6033 64.167 27.364 64.582 27.2078C65.002 27.0515 65.6001 26.9319 66.3765 26.8489L67.6069 26.717C67.9048 26.6877 68.1318 26.6511 68.2881 26.6072C68.4443 26.5583 68.5542 26.4924 68.6177 26.4094C68.686 26.3264 68.7202 26.2092 68.7202 26.0579V25.9626C68.7202 25.7869 68.6787 25.6453 68.5957 25.5378C68.5127 25.4255 68.3613 25.3425 68.1416 25.2888C67.9268 25.2302 67.6216 25.2009 67.2261 25.2009C66.8647 25.2009 66.584 25.2327 66.3838 25.2961C66.1885 25.3596 66.0493 25.45 65.9663 25.5671C65.8882 25.6794 65.8394 25.8235 65.8198 25.9993L65.7979 26.2043H63.6006L63.6299 25.8674C63.6934 25.1643 64.0254 24.6077 64.626 24.1975C65.2314 23.7874 66.1128 23.5823 67.27 23.5823C68.1587 23.5823 68.8765 23.675 69.4233 23.8606C69.9702 24.0413 70.3682 24.3123 70.6172 24.6736C70.8711 25.0349 70.998 25.4915 70.998 26.0432V31.4998H68.7642V30.7454C68.5347 31.0383 68.1978 31.2581 67.7534 31.4045C67.314 31.5461 66.7524 31.6169 66.0688 31.6169ZM65.6587 29.2219C65.6587 29.4417 65.6904 29.6101 65.7539 29.7273C65.8223 29.8396 65.9395 29.9202 66.1055 29.969C66.2764 30.0178 66.5254 30.0422 66.8525 30.0422C67.4727 30.0422 67.939 29.9275 68.2515 29.698C68.564 29.4685 68.7202 29.1096 68.7202 28.6213V27.8669C68.6274 27.9353 68.498 27.9915 68.332 28.0354C68.1709 28.0745 67.9512 28.1135 67.6729 28.1526L66.8525 28.2551C66.5156 28.2991 66.2666 28.3503 66.1055 28.4089C65.9443 28.4675 65.8296 28.553 65.7612 28.6653C65.6929 28.7776 65.6587 28.946 65.6587 29.1707V29.2219ZM72.5654 23.6995H74.8213V24.4905C75.0312 24.178 75.334 23.946 75.7295 23.7947C76.125 23.6433 76.6475 23.5676 77.2969 23.5676C78.3467 23.5676 79.1157 23.7776 79.604 24.1975C80.0923 24.6174 80.3364 25.2717 80.3364 26.1604V31.4998H78.0146V26.8635C78.0146 26.5022 77.9707 26.2239 77.8828 26.0286C77.7949 25.8333 77.6387 25.6917 77.4141 25.6038C77.1895 25.5159 76.8647 25.4719 76.4399 25.4719C76.0249 25.4719 75.7051 25.5232 75.4805 25.6257C75.2607 25.7234 75.1069 25.8772 75.019 26.0872C74.9312 26.2971 74.8872 26.5803 74.8872 26.9368V31.4998H72.5654V23.6995ZM85.1631 31.6096C84.1914 31.6096 83.4468 31.5266 82.9292 31.3606C82.4165 31.1897 82.0649 30.9456 81.8745 30.6282C81.6841 30.3108 81.5767 29.886 81.5522 29.3538L81.5376 29.0168H83.7642L83.7861 29.2512C83.8008 29.4612 83.8423 29.6199 83.9106 29.7273C83.979 29.8347 84.1108 29.9153 84.3062 29.969C84.5063 30.0227 84.8042 30.0496 85.1997 30.0496C85.605 30.0496 85.9126 30.0227 86.1226 29.969C86.3325 29.9153 86.4717 29.8396 86.54 29.7419C86.6133 29.6394 86.6499 29.5027 86.6499 29.3318V29.2585C86.6499 29.0095 86.5986 28.8264 86.4961 28.7092C86.3936 28.592 86.1958 28.5188 85.9028 28.4895L83.8374 28.2551C83.2856 28.1917 82.8535 28.0745 82.541 27.9036C82.2285 27.7327 82.0063 27.5007 81.8745 27.2078C81.7427 26.9148 81.6768 26.5339 81.6768 26.0652V25.7869C81.6768 25.2937 81.7817 24.8884 81.9917 24.571C82.2065 24.2488 82.5703 24.0022 83.083 23.8313C83.6006 23.6604 84.3062 23.575 85.1997 23.575C86.0591 23.575 86.7402 23.658 87.2432 23.824C87.751 23.9851 88.1147 24.2219 88.3345 24.5344C88.5591 24.8469 88.686 25.2424 88.7153 25.7209L88.73 25.9993H86.5547L86.54 25.8235C86.5254 25.6575 86.4766 25.5232 86.3936 25.4207C86.3154 25.3181 86.1763 25.24 85.9761 25.1863C85.7759 25.1326 85.4976 25.1057 85.1411 25.1057C84.7749 25.1057 84.4941 25.1326 84.2988 25.1863C84.1084 25.2351 83.979 25.3083 83.9106 25.406C83.8472 25.5037 83.8154 25.6331 83.8154 25.7942V25.8528C83.8154 26.0823 83.8691 26.2507 83.9766 26.3582C84.084 26.4607 84.2866 26.5291 84.5845 26.5632L86.4814 26.761C87.0576 26.8245 87.519 26.9441 87.8657 27.1199C88.2124 27.2908 88.4663 27.5325 88.6274 27.845C88.7935 28.1575 88.8765 28.5579 88.8765 29.0461V29.3684C88.8765 29.8665 88.7666 30.2791 88.5469 30.6062C88.3271 30.9285 87.9463 31.1775 87.4043 31.3533C86.8623 31.5242 86.1152 31.6096 85.1631 31.6096ZM90.7222 25.45H89.4844V23.6995H90.7222L90.7441 22.967C90.7637 22.4592 90.8613 22.0344 91.0371 21.6926C91.2129 21.3508 91.4985 21.0872 91.894 20.9016C92.2944 20.7161 92.8315 20.6233 93.5054 20.6233H95.0361V22.3372H93.9521C93.6738 22.3372 93.4565 22.3616 93.3003 22.4104C93.1489 22.4592 93.0415 22.5349 92.978 22.6375C92.9194 22.74 92.8901 22.8792 92.8901 23.0549V23.6995H94.7871V25.45H92.9707V31.4998H90.7222V25.45ZM99.3647 31.6609C98.3687 31.6609 97.5898 31.551 97.0283 31.3313C96.4717 31.1067 96.0664 30.7209 95.8125 30.1741C95.5586 29.6272 95.4316 28.8557 95.4316 27.8596V27.3542C95.4316 26.3875 95.561 25.6306 95.8198 25.0837C96.0786 24.532 96.4888 24.1389 97.0503 23.9045C97.6118 23.6702 98.376 23.553 99.3428 23.553C100.305 23.553 101.069 23.6653 101.635 23.8899C102.207 24.1145 102.624 24.488 102.888 25.0105C103.151 25.5281 103.283 26.241 103.283 27.1492V28.2112H97.7168V28.3357C97.7168 28.7947 97.7607 29.1414 97.8486 29.3757C97.9365 29.6101 98.0952 29.7761 98.3247 29.8738C98.5591 29.9666 98.9106 30.0129 99.3794 30.0129C99.8237 30.0129 100.161 29.9836 100.39 29.925C100.625 29.8616 100.786 29.7688 100.874 29.6467C100.961 29.5247 101.015 29.3562 101.035 29.1414L101.064 28.907H103.232L103.203 29.3245C103.154 29.8713 103.002 30.3132 102.749 30.6501C102.495 30.9871 102.097 31.241 101.555 31.4119C101.013 31.5779 100.283 31.6609 99.3647 31.6609ZM101.079 26.761V26.5999C101.079 26.2288 101.032 25.9431 100.939 25.7429C100.847 25.5378 100.678 25.3914 100.434 25.3035C100.195 25.2107 99.8433 25.1643 99.3794 25.1643C98.9155 25.1643 98.564 25.2131 98.3247 25.3108C98.0903 25.4036 97.9292 25.55 97.8413 25.7502C97.7583 25.9504 97.7168 26.2336 97.7168 26.5999V26.761H101.079ZM104.616 23.6995H106.872V24.7688C107.092 24.4075 107.399 24.1243 107.795 23.9192C108.195 23.7092 108.662 23.6042 109.194 23.6042H109.868V25.7576H108.996C108.464 25.7576 108.049 25.8186 107.751 25.9407C107.453 26.0579 107.243 26.2385 107.121 26.4827C106.999 26.7268 106.938 27.054 106.938 27.4641V31.4998H104.616V23.6995Z" fill="#FF3939"/>
<defs>
<clipPath id="clip0_10_599">
<rect width="39" height="28" fill="white" transform="translate(0.853516 3.99976)"/>
</clipPath>
</defs>
</svg>
