<svg width="196" height="39" viewBox="0 0 196 39" fill="none" xmlns="http://www.w3.org/2000/svg">
<g clip-path="url(#clip0_1_583)">
<path d="M19.4736 20.131C19.4736 23.0718 18.6036 25.5489 16.8574 27.5542C15.0351 29.6552 12.6673 30.71 9.76874 30.71C6.86257 30.71 4.50236 29.6552 2.68007 27.5542C0.933159 25.5489 0.0566406 23.0718 0.0566406 20.131C0.0566406 17.1821 0.933159 14.7058 2.68007 12.7078C4.52264 10.6263 6.8905 9.58621 9.76874 9.58621C12.6673 9.58621 15.0351 10.6263 16.8574 12.7078C18.6036 14.7058 19.4736 17.1821 19.4736 20.131ZM13.7025 20.131C13.7025 18.799 13.3854 17.6747 12.7503 16.7656C12.0398 15.7324 11.0454 15.2191 9.76874 15.2191C8.49165 15.2191 7.49767 15.7324 6.78643 16.7656C6.14483 17.6747 5.82728 18.799 5.82728 20.131C5.82728 21.4557 6.14483 22.5935 6.78643 23.5298C7.49767 24.563 8.49165 25.0771 9.76874 25.0771C11.0454 25.0771 12.0398 24.563 12.7503 23.5298C13.3854 22.5935 13.7025 21.4557 13.7025 20.131ZM40.3398 20.131C40.3398 22.878 39.5528 25.2782 37.9719 27.3316C36.2808 29.5791 34.0997 30.71 31.4491 30.71C29.5782 30.71 27.9912 30.1621 26.6935 29.08C26.6935 29.3292 26.721 29.9329 26.7765 30.898C26.8316 31.8682 26.8587 32.6591 26.8587 33.2836C26.8587 36.7324 25.8372 38.4524 23.7946 38.4524C22.959 38.4524 22.2761 38.154 21.7305 37.5641C21.1922 36.9681 20.9228 36.2521 20.9228 35.4069V12.9785C20.9228 12.1598 21.1991 11.4519 21.7511 10.8559C22.3032 10.266 22.9869 9.96843 23.8014 9.96843C25.0296 9.96843 25.9271 10.5844 26.4934 11.8134C27.7012 10.3287 29.3509 9.58621 31.4422 9.58621C34.0997 9.58621 36.2739 10.6956 37.9719 12.9231C39.5459 14.9838 40.3398 17.384 40.3398 20.131ZM34.5687 20.131C34.5687 18.799 34.2451 17.6747 33.61 16.7656C32.8983 15.7324 31.9047 15.2191 30.6277 15.2191C29.3509 15.2191 28.357 15.7324 27.6457 16.7656C27.0106 17.6747 26.6935 18.799 26.6935 20.131C26.6935 21.4557 27.0106 22.5935 27.6457 23.5298C28.357 24.563 29.3509 25.0771 30.6277 25.0771C31.9047 25.0771 32.8983 24.563 33.61 23.5298C34.2451 22.5935 34.5687 21.4557 34.5687 20.131ZM61.3368 19.5073C61.3368 20.4774 61.1088 21.1434 60.6531 21.5187C60.1978 21.886 59.4869 22.0732 58.5274 22.0732H48.1113C48.1113 23.1833 48.6294 24.0362 49.6647 24.6322C50.4999 25.0979 51.5214 25.3344 52.7292 25.3344C53.6685 25.3344 54.7933 25.021 56.1117 24.4046C57.4301 23.7797 58.2787 23.474 58.6452 23.474C59.3144 23.474 59.8803 23.7171 60.3497 24.2166C60.8119 24.7095 61.0472 25.3059 61.0472 25.993C61.0472 27.5807 59.8669 28.817 57.5055 29.7045C55.7043 30.3701 53.8751 30.71 52.005 30.71C48.9955 30.71 46.5657 29.7045 44.709 27.6999C42.8518 25.6947 41.9206 23.1764 41.9206 20.131C41.9206 17.2305 42.8867 14.7542 44.8191 12.6878C46.7447 10.6194 49.1405 9.58621 51.9977 9.58621C54.6552 9.58621 56.8777 10.5644 58.659 12.5205C60.4392 14.4773 61.3368 16.8079 61.3368 19.5073ZM55.5665 18.0496C55.5386 17.1613 55.1315 16.3569 54.3445 15.6278C53.5575 14.8999 52.7227 14.5396 51.8389 14.5396C50.928 14.5396 50.0786 14.8999 49.292 15.6278C48.5054 16.3569 48.1113 17.1613 48.1113 18.0496H55.5665ZM80.7258 27.2824C80.7258 28.1295 80.4564 28.8435 79.9185 29.4403C79.3729 30.0305 78.6896 30.3289 77.8544 30.3289C75.8389 30.3289 74.8308 28.7193 74.8308 25.5074C74.8308 24.8899 74.8725 23.9189 74.9551 22.58C75.0451 21.2476 75.0868 20.2698 75.0868 19.6523C75.0868 16.2454 73.9891 14.5396 71.8011 14.5396C69.6126 14.5396 68.5222 16.2454 68.5222 19.6523C68.5222 20.2698 68.5567 21.2476 68.6187 22.58C68.6879 23.9189 68.7223 24.8899 68.7223 25.5074C68.7223 28.7193 67.7284 30.3289 65.7408 30.3289C64.9052 30.3289 64.2223 30.0305 63.6836 29.4403C63.1384 28.8435 62.8691 28.1295 62.8691 27.2824V12.9723C62.8691 12.1314 63.1384 11.4181 63.6836 10.8421C64.2223 10.2591 64.9125 9.96843 65.7477 9.96843C67.1281 9.96843 68.0872 10.5844 68.6255 11.8134C69.5575 10.3287 71.2069 9.58621 73.5679 9.58621C75.7559 9.58621 77.4956 10.1684 78.7723 11.3269C80.0769 12.5697 80.7258 14.2755 80.7258 16.4473V27.2824ZM98.83 26.666C98.83 27.9768 97.983 29.0169 96.2839 29.781C94.9385 30.3975 93.4764 30.7144 91.9977 30.71C89.0912 30.71 86.7309 29.6552 84.9087 27.5542C83.1625 25.5489 82.286 23.0718 82.286 20.131C82.286 17.1821 83.1763 14.6923 84.9638 12.6524C86.7516 10.6064 89.0912 9.58621 91.9977 9.58621C93.675 9.58621 95.1177 9.83577 96.3191 10.3287C97.9952 10.9947 98.83 12.0349 98.83 13.4503C98.83 14.1643 98.6104 14.7957 98.1678 15.3441C97.7266 15.8851 97.16 16.1627 96.4702 16.1627C96 16.1627 95.324 16.0031 94.4406 15.6917C93.5575 15.3717 92.8539 15.2191 92.3363 15.2191C90.9624 15.2191 89.8923 15.7117 89.1264 16.6964C88.4147 17.5847 88.0562 18.7225 88.0562 20.131C88.0562 21.4557 88.3738 22.58 89.0162 23.4886C89.7263 24.5503 90.7275 25.0771 92.0042 25.0771C92.5708 25.0771 93.3433 24.9106 94.33 24.5699C95.3178 24.2381 96.0291 24.0647 96.4702 24.0647C97.113 24.0647 97.6639 24.3415 98.1341 24.8829C98.5967 25.4309 98.83 26.02 98.83 26.666ZM119.807 27.2824C119.807 28.1295 119.539 28.8435 119 29.4403C118.455 30.0305 117.765 30.3289 116.928 30.3289C115.672 30.3289 114.776 29.711 114.237 28.4832C113.03 29.9683 111.379 30.71 109.288 30.71C106.611 30.71 104.415 29.5791 102.716 27.3316C101.17 25.2782 100.392 22.878 100.392 20.131C100.392 17.384 101.17 14.9838 102.716 12.9231C104.443 10.6956 106.631 9.58621 109.288 9.58621C111.379 9.58621 113.03 10.3287 114.237 11.8134C114.776 10.5844 115.672 9.96843 116.928 9.96843C117.743 9.96843 118.427 10.266 118.98 10.8559C119.531 11.4519 119.807 12.1529 119.807 12.9723V27.2824ZM114.037 20.131C114.037 18.799 113.72 17.6747 113.085 16.7656C112.346 15.7324 111.352 15.2191 110.103 15.2191C108.826 15.2191 107.832 15.7324 107.12 16.7656C106.48 17.6747 106.162 18.799 106.162 20.131C106.162 21.4557 106.472 22.5935 107.086 23.5298C107.818 24.563 108.826 25.0771 110.103 25.0771C111.379 25.0771 112.373 24.563 113.085 23.5298C113.72 22.5935 114.037 21.4557 114.037 20.131ZM134.53 12.5897C134.53 13.8313 133.93 14.6846 132.729 15.1491C131.618 15.5244 130.512 15.9066 129.409 16.3008C128.2 16.9952 127.6 18.2853 127.6 20.1587V27.2824C127.6 28.1295 127.324 28.8435 126.786 29.4403C126.24 30.0305 125.55 30.3289 124.715 30.3289C123.874 30.3289 123.182 30.0305 122.645 29.4403C122.099 28.8435 121.83 28.1295 121.83 27.2824V12.9723C121.83 12.1314 122.099 11.4181 122.637 10.8421C123.182 10.2591 123.874 9.96843 124.709 9.96843C126.089 9.96843 127.047 10.5844 127.586 11.8134C128.823 10.3287 130.148 9.58621 131.576 9.58621C132.39 9.58621 133.088 9.88383 133.668 10.4737C134.24 11.0705 134.53 11.778 134.53 12.5897ZM149.585 12.8535C149.585 14.1436 149.081 14.9553 148.081 15.3029C147.589 15.476 146.561 15.5659 144.994 15.5659V27.2824C144.994 28.1295 144.718 28.8435 144.181 29.4403C143.634 30.0305 142.944 30.3289 142.109 30.3289C141.296 30.3289 140.604 30.0305 140.052 29.4403C139.501 28.8435 139.224 28.1295 139.224 27.2824V15.5659C138.037 15.5659 137.174 15.4133 136.629 15.1157C135.884 14.6992 135.516 13.9429 135.516 12.8535C135.516 11.7649 135.897 11.0224 136.663 10.6263C137.18 10.3349 138.037 10.183 139.224 10.183V7.69936C139.224 4.7789 140.183 3.32233 142.109 3.32233C144.028 3.32233 144.994 4.7789 144.994 7.69936V10.183C146.561 10.183 147.589 10.273 148.081 10.446C149.081 10.7928 149.585 11.5984 149.585 12.8535ZM195.944 9.33089C195.928 7.55016 192.654 6.74189 184.179 6.74189C164.294 6.74189 159.249 5.88825 153.85 0.178467C156.121 3.60688 157.364 10.0373 178.382 9.71733C200.311 9.3778 186.933 15.4002 183.041 22.2043C190.06 15.9074 195.923 11.7568 195.944 9.35665V9.33089ZM168 27.6161C168 28.4163 167.684 29.1837 167.121 29.7495C166.558 30.3153 165.794 30.6333 164.998 30.6335C163.334 30.6335 161.989 29.2815 161.989 27.6161C161.988 27.2189 162.066 26.8254 162.217 26.4584C162.368 26.0913 162.59 25.7577 162.869 25.4768C163.149 25.1959 163.481 24.9731 163.846 24.8212C164.211 24.6693 164.603 24.5912 164.998 24.5915C166.656 24.5915 168 25.9438 168 27.6161ZM181.694 27.6161C181.694 28.4163 181.378 29.1837 180.815 29.7495C180.252 30.3153 179.488 30.6333 178.692 30.6335C177.03 30.6335 175.683 29.2815 175.683 27.6161C175.683 27.2189 175.761 26.8255 175.912 26.4585C176.063 26.0914 176.284 25.7579 176.564 25.477C176.843 25.196 177.175 24.9732 177.54 24.8213C177.905 24.6694 178.297 24.5913 178.692 24.5915C180.35 24.5915 181.694 25.9438 181.694 27.6161Z" fill="url(#paint0_linear_1_583)"/>
</g>
<defs>
<linearGradient id="paint0_linear_1_583" x1="9794.41" y1="3027.8" x2="9794.41" y2="0.178467" gradientUnits="userSpaceOnUse">
<stop stop-color="#04B6F0"/>
<stop offset="1" stop-color="#3ECAF0"/>
</linearGradient>
<clipPath id="clip0_1_583">
<rect width="196" height="38.4523" fill="white"/>
</clipPath>
</defs>
</svg>
