<svg width="118" height="22" viewBox="0 0 118 22" fill="none" xmlns="http://www.w3.org/2000/svg">
<path d="M11.6965 11.4688C11.6965 13.1592 11.1724 14.583 10.1206 15.7357C9.02285 16.9434 7.59648 17.5497 5.85045 17.5497C4.09981 17.5497 2.67805 16.9434 1.58032 15.7357C0.528004 14.583 0 13.1592 0 11.4688C0 9.77375 0.528004 8.35035 1.58032 7.2019C2.69026 6.00549 4.11663 5.40761 5.85045 5.40761C7.59648 5.40761 9.02285 6.00549 10.1206 7.2019C11.1724 8.35035 11.6965 9.77375 11.6965 11.4688ZM8.22013 11.4688C8.22013 10.7032 8.02907 10.0569 7.64649 9.53438C7.21851 8.94048 6.61952 8.64541 5.85045 8.64541C5.08114 8.64541 4.48239 8.94048 4.05395 9.53438C3.66745 10.0569 3.47616 10.7032 3.47616 11.4688C3.47616 12.2302 3.66745 12.8842 4.05395 13.4224C4.48239 14.0163 5.08114 14.3118 5.85045 14.3118C6.61952 14.3118 7.21851 14.0163 7.64649 13.4224C8.02907 12.8842 8.22013 12.2302 8.22013 11.4688ZM24.2661 11.4688C24.2661 13.0478 23.792 14.4274 22.8397 15.6077C21.821 16.8996 20.5071 17.5497 18.9104 17.5497C17.7834 17.5497 16.8274 17.2347 16.0457 16.6127C16.0457 16.7559 16.0623 17.103 16.0957 17.6577C16.1289 18.2154 16.1453 18.67 16.1453 19.029C16.1453 21.0114 15.5299 22 14.2994 22C13.7961 22 13.3847 21.8285 13.0561 21.4894C12.7318 21.1468 12.5695 20.7353 12.5695 20.2495V7.3575C12.5695 6.88693 12.7359 6.48003 13.0685 6.13744C13.4011 5.79838 13.8129 5.62731 14.3036 5.62731C15.0434 5.62731 15.5841 5.98139 15.9252 6.68779C16.6528 5.83441 17.6465 5.40761 18.9063 5.40761C20.5071 5.40761 21.8169 6.04527 22.8397 7.32567C23.7878 8.51015 24.2661 9.88979 24.2661 11.4688ZM20.7897 11.4688C20.7897 10.7032 20.5947 10.0569 20.2121 9.53438C19.7834 8.94048 19.1849 8.64541 18.4156 8.64541C17.6465 8.64541 17.0478 8.94048 16.6193 9.53438C16.2368 10.0569 16.0457 10.7032 16.0457 11.4688C16.0457 12.2302 16.2368 12.8842 16.6193 13.4224C17.0478 14.0163 17.6465 14.3118 18.4156 14.3118C19.1849 14.3118 19.7834 14.0163 20.2121 13.4224C20.5947 12.8842 20.7897 12.2302 20.7897 11.4688ZM36.9144 11.1103C36.9144 11.6679 36.7771 12.0508 36.5026 12.2665C36.2283 12.4776 35.8001 12.5852 35.2221 12.5852H28.9476C28.9476 13.2233 29.2596 13.7135 29.8833 14.0561C30.3864 14.3238 31.0017 14.4597 31.7293 14.4597C32.2951 14.4597 32.9727 14.2796 33.7669 13.9253C34.5611 13.5661 35.0723 13.3904 35.2931 13.3904C35.6962 13.3904 36.037 13.5301 36.3198 13.8172C36.5982 14.1005 36.7399 14.4434 36.7399 14.8383C36.7399 15.7509 36.0289 16.4615 34.6065 16.9717C33.5215 17.3543 32.4196 17.5497 31.293 17.5497C29.4802 17.5497 28.0165 16.9717 26.898 15.8195C25.7793 14.6668 25.2184 13.2193 25.2184 11.4688C25.2184 9.8016 25.8003 8.37819 26.9644 7.1904C28.1243 6.00151 29.5675 5.40761 31.2887 5.40761C32.8895 5.40761 34.2283 5.9699 35.3014 7.09426C36.3737 8.21906 36.9144 9.55869 36.9144 11.1103ZM33.4385 10.2724C33.4217 9.76181 33.1764 9.29943 32.7024 8.88036C32.2283 8.46196 31.7254 8.25486 31.193 8.25486C30.6443 8.25486 30.1326 8.46196 29.6588 8.88036C29.1849 9.29943 28.9476 9.76181 28.9476 10.2724H33.4385ZM48.5941 15.5794C48.5941 16.0663 48.4319 16.4768 48.1078 16.8198C47.7792 17.1591 47.3675 17.3306 46.8644 17.3306C45.6503 17.3306 45.043 16.4054 45.043 14.5592C45.043 14.2042 45.0682 13.6461 45.1179 12.8765C45.1721 12.1107 45.1972 11.5486 45.1972 11.1936C45.1972 9.23533 44.536 8.25486 43.218 8.25486C41.8997 8.25486 41.2428 9.23533 41.2428 11.1936C41.2428 11.5486 41.2636 12.1107 41.3009 12.8765C41.3426 13.6461 41.3634 14.2042 41.3634 14.5592C41.3634 16.4054 40.7646 17.3306 39.5673 17.3306C39.064 17.3306 38.6526 17.1591 38.3281 16.8198C37.9997 16.4768 37.8374 16.0663 37.8374 15.5794V7.35396C37.8374 6.87058 37.9997 6.46058 38.3281 6.12948C38.6526 5.79441 39.0684 5.62731 39.5715 5.62731C40.403 5.62731 40.9808 5.98139 41.3051 6.68779C41.8665 5.83441 42.86 5.40761 44.2823 5.40761C45.6003 5.40761 46.6483 5.74224 47.4173 6.40819C48.2032 7.12255 48.5941 8.10302 48.5941 9.35137V15.5794ZM59.4999 15.2251C59.4999 15.9786 58.9896 16.5765 57.9661 17.0157C57.1557 17.37 56.2749 17.5522 55.3842 17.5497C53.6333 17.5497 52.2115 16.9434 51.1138 15.7357C50.062 14.583 49.534 13.1592 49.534 11.4688C49.534 9.77375 50.0703 8.34261 51.147 7.17007C52.224 5.99399 53.6333 5.40761 55.3842 5.40761C56.3946 5.40761 57.2636 5.55106 57.9873 5.83441C58.997 6.21723 59.4999 6.8151 59.4999 7.6287C59.4999 8.03914 59.3676 8.40207 59.1009 8.71725C58.8352 9.02823 58.4939 9.18781 58.0784 9.18781C57.7951 9.18781 57.3879 9.09609 56.8557 8.91705C56.3238 8.73316 55.9 8.64541 55.5881 8.64541C54.7605 8.64541 54.1159 8.92855 53.6545 9.49459C53.2258 10.0052 53.0099 10.6592 53.0099 11.4688C53.0099 12.2302 53.2012 12.8765 53.5881 13.3988C54.0159 14.009 54.619 14.3118 55.3881 14.3118C55.7294 14.3118 56.1947 14.2161 56.7891 14.0203C57.3842 13.8296 57.8126 13.7299 58.0784 13.7299C58.4655 13.7299 58.7974 13.889 59.0807 14.2002C59.3593 14.5152 59.4999 14.8538 59.4999 15.2251ZM72.1363 15.5794C72.1363 16.0663 71.9745 16.4768 71.6497 16.8198C71.3215 17.1591 70.906 17.3306 70.402 17.3306C69.6453 17.3306 69.1054 16.9754 68.7809 16.2697C68.0535 17.1233 67.0595 17.5497 65.7998 17.5497C64.1869 17.5497 62.8645 16.8996 61.841 15.6077C60.9097 14.4274 60.4407 13.0478 60.4407 11.4688C60.4407 9.88979 60.9097 8.51015 61.841 7.32567C62.8811 6.04527 64.1989 5.40761 65.7998 5.40761C67.0595 5.40761 68.0535 5.83441 68.7809 6.68779C69.1054 5.98139 69.6453 5.62731 70.402 5.62731C70.8931 5.62731 71.305 5.79838 71.638 6.13744C71.9699 6.48003 72.1363 6.88296 72.1363 7.35396V15.5794ZM68.6603 11.4688C68.6603 10.7032 68.4693 10.0569 68.0867 9.53438C67.6417 8.94048 67.0429 8.64541 66.2906 8.64541C65.5211 8.64541 64.9226 8.94048 64.4939 9.53438C64.1079 10.0569 63.9166 10.7032 63.9166 11.4688C63.9166 12.2302 64.103 12.8842 64.4729 13.4224C64.9143 14.0163 65.5211 14.3118 66.2906 14.3118C67.0595 14.3118 67.658 14.0163 68.0867 13.4224C68.4693 12.8842 68.6603 12.2302 68.6603 11.4688ZM81.0054 7.13404C81.0054 7.84773 80.6438 8.33819 79.9201 8.60519C79.2508 8.82091 78.585 9.04061 77.9203 9.26716C77.1921 9.66633 76.8304 10.4079 76.8304 11.4847V15.5794C76.8304 16.0663 76.664 16.4768 76.3405 16.8198C76.0114 17.1591 75.5956 17.3306 75.0927 17.3306C74.5859 17.3306 74.1695 17.1591 73.8456 16.8198C73.5165 16.4768 73.3547 16.0663 73.3547 15.5794V7.35396C73.3547 6.87058 73.5165 6.46058 73.841 6.12948C74.1694 5.79441 74.5859 5.62731 75.089 5.62731C75.9201 5.62731 76.4977 5.98139 76.8224 6.68779C77.567 5.83441 78.3654 5.40761 79.2259 5.40761C79.7161 5.40761 80.1363 5.57869 80.4857 5.91774C80.8305 6.26077 81.0054 6.66746 81.0054 7.13404ZM90.0739 7.28567C90.0739 8.02721 89.7703 8.49379 89.1681 8.6936C88.872 8.79306 88.2522 8.84478 87.3087 8.84478V15.5794C87.3087 16.0663 87.1423 16.4768 86.8187 16.8198C86.4894 17.1591 86.0739 17.3306 85.5707 17.3306C85.0808 17.3306 84.6641 17.1591 84.3313 16.8198C83.9994 16.4768 83.8328 16.0663 83.8328 15.5794V8.84478C83.1174 8.84478 82.5979 8.75703 82.2697 8.58596C81.821 8.34659 81.5993 7.91183 81.5993 7.28567C81.5993 6.65994 81.8284 6.23314 82.2898 6.00549C82.6016 5.83795 83.1174 5.75064 83.8328 5.75064V4.32304C83.8328 2.64435 84.4103 1.80711 85.5707 1.80711C86.7268 1.80711 87.3087 2.64435 87.3087 4.32304V5.75064C88.2522 5.75064 88.872 5.80236 89.1681 5.90182C89.7703 6.10119 90.0739 6.56424 90.0739 7.28567ZM118 5.26085C117.991 4.23728 116.018 3.77269 110.913 3.77269C98.9345 3.77269 95.8955 3.28201 92.6431 0C94.0112 1.97066 94.7598 5.66687 107.421 5.48298C120.631 5.28782 112.572 8.74952 110.227 12.6606C114.456 9.04105 117.987 6.6553 118 5.27566V5.26085ZM101.167 15.7713C101.167 16.2313 100.976 16.6723 100.637 16.9976C100.298 17.3228 99.8382 17.5056 99.3585 17.5057C98.3562 17.5057 97.5459 16.7285 97.5459 15.7713C97.5457 15.5429 97.5925 15.3168 97.6835 15.1058C97.7745 14.8948 97.908 14.7031 98.0764 14.5416C98.2447 14.3801 98.4446 14.2521 98.6646 14.1647C98.8846 14.0774 99.1204 14.0325 99.3585 14.0327C100.357 14.0327 101.167 14.81 101.167 15.7713ZM109.416 15.7713C109.416 16.2313 109.226 16.6723 108.886 16.9976C108.547 17.3228 108.087 17.5056 107.608 17.5057C106.606 17.5057 105.795 16.7285 105.795 15.7713C105.795 15.543 105.842 15.3168 105.933 15.1058C106.024 14.8949 106.157 14.7032 106.326 14.5417C106.494 14.3802 106.694 14.2521 106.914 14.1648C107.134 14.0775 107.37 14.0326 107.608 14.0327C108.606 14.0327 109.416 14.81 109.416 15.7713Z" fill="#FF3939"/>
</svg>
