<svg width="48" height="45" viewBox="0 0 48 45" fill="none" xmlns="http://www.w3.org/2000/svg">
<path d="M6.55529 32.3288H16.7243L21.307 37.9051C26.1737 43.8252 31.9494 45.6394 38.35 43.2904C46.152 40.4259 49.3523 33.4174 46.2656 24.8428L44.7507 20.6415C43.3683 16.8031 40.7929 15.0079 37.7441 15.6572V6.83448C37.7441 2.88142 35.7178 0.857147 31.7411 0.857147H6.55529C2.59752 0.857147 0.571289 2.86232 0.571289 6.83448V26.3515C0.571289 30.3237 2.59752 32.3288 6.55529 32.3288ZM6.78253 29.0442C4.86992 29.0442 3.84734 27.9747 3.84734 26.0269V7.15912C3.84734 5.21124 4.86992 4.16091 6.78253 4.16091H31.5139C33.4076 4.16091 34.468 5.21124 34.468 7.15912V14.6451C34.0135 14.6451 33.5401 14.7215 33.0478 14.8934C32.5554 15.0843 32.1009 15.3517 31.6843 15.6763C30.6617 14.4159 29.1657 13.9767 27.594 14.5496C27.2531 14.6642 26.9123 14.8552 26.5903 15.0843L24.6588 9.69901C23.7877 7.2928 21.6289 6.26157 19.3755 7.08273C17.103 7.923 16.0805 10.1191 16.9516 12.5253L22.0266 26.6189C22.0645 26.7143 22.0455 26.7907 21.9508 26.8289C21.894 26.848 21.8372 26.8289 21.7804 26.7716L19.9057 24.7283C18.8074 23.6397 17.4818 23.3342 16.213 23.7925C14.3193 24.48 13.1831 26.2942 13.9406 28.3758C14.0164 28.5858 14.111 28.815 14.2247 29.0442H6.78253ZM37.3843 40.2922C32.4229 42.1064 27.878 41.1134 23.5983 35.9763L17.2356 28.3949C17.0652 28.1848 16.9326 28.0129 16.8379 27.7265C16.6486 27.1727 16.8758 26.5616 17.5197 26.3324C18.0309 26.1414 18.4665 26.3324 18.8831 26.7716L23.3332 31.2785C24.0718 32.0424 24.7535 32.1188 25.4352 31.8705C26.2305 31.5841 26.6282 30.7247 26.2874 29.7889L19.6406 11.3413C19.3944 10.6539 19.6784 10.0237 20.3223 9.7754C20.9851 9.54623 21.591 9.85178 21.8372 10.5202L26.5335 23.5252C26.7797 24.2126 27.5751 24.5564 28.2568 24.289C28.9385 24.0408 29.3172 23.296 29.0521 22.5894L27.3857 17.9871C27.6319 17.7579 27.9538 17.5478 28.2757 17.4333C29.0521 17.1468 29.7338 17.4905 30.0179 18.3117L31.5328 22.4748C31.7979 23.2005 32.5743 23.5061 33.2371 23.2578C33.8999 23.0095 34.2976 22.2839 34.0325 21.5582L32.8773 18.3308C33.1046 18.1016 33.4265 17.8916 33.7484 17.777C34.5248 17.4905 35.2066 17.8343 35.4906 18.6555L36.4942 21.4245C36.7594 22.1693 37.5547 22.4557 38.2364 22.2075C38.8992 21.9783 39.2969 21.2335 39.0318 20.5079L38.369 18.6936C39.8082 18.178 41.1148 19.3047 42.0238 21.8255L43.3872 25.5494C45.9247 32.6153 43.6145 38.0006 37.3843 40.2922Z" fill="#FF3939"/>
</svg>
