<svg width="29" height="29" viewBox="0 0 29 29" fill="none" xmlns="http://www.w3.org/2000/svg">
<path d="M18.7052 23.9689C20.419 23.9689 21.5844 23.4792 22.642 22.3334C22.7106 22.2551 22.7791 22.167 22.8477 22.0886C23.4255 21.4423 23.7095 20.7666 23.7095 20.1398C23.7095 19.4053 23.3177 18.7394 22.4462 18.142L19.5278 16.105C18.6073 15.4685 17.5398 15.4195 16.7172 16.2421L15.9925 16.9668C15.7379 17.2215 15.4931 17.241 15.1993 17.0354C14.6705 16.6828 13.6716 15.8015 12.9861 15.1159C12.2907 14.4206 11.5856 13.6372 11.2037 13.0398C10.9981 12.7362 11.0176 12.5012 11.2723 12.2466L11.997 11.5219C12.8196 10.6993 12.7706 9.63182 12.1243 8.71127L10.0481 5.74397C9.47034 4.90176 8.77503 4.51004 8.04055 4.50024C7.41379 4.49045 6.74786 4.77445 6.10152 5.34245C6.02317 5.411 5.94483 5.47955 5.86648 5.5481C4.70111 6.61555 4.20166 7.76134 4.20166 9.54368C4.20166 12.4326 5.87628 15.8406 9.13737 19.0821C12.3789 22.3041 15.7477 23.9689 18.7052 23.9689ZM18.7052 22.3334C16.208 22.3726 13.1036 20.6001 10.3811 17.8972C7.63903 15.1943 5.81752 11.9724 5.85669 9.47513C5.87628 8.42727 6.24841 7.50672 6.98289 6.86038C7.06124 6.80162 7.12 6.75265 7.19834 6.69389C7.47255 6.45886 7.76634 6.33155 8.04055 6.33155C8.32455 6.33155 8.57917 6.44907 8.77503 6.74286L10.6063 9.49472C10.8414 9.82768 10.8512 10.2096 10.5084 10.5426L9.72496 11.3162C8.98068 12.0409 9.04923 12.8929 9.5193 13.5588C10.0481 14.2933 11.0372 15.4195 11.8696 16.2421C12.7608 17.1235 13.9752 18.2106 14.6803 18.7198C15.3462 19.1899 16.1982 19.2584 16.9229 18.5141L17.6965 17.7307C18.0197 17.3879 18.4016 17.3977 18.7444 17.623L21.4473 19.4249C21.7509 19.6208 21.8586 19.8656 21.8586 20.1496C21.8586 20.4238 21.7313 20.7176 21.4962 21.0016C21.4375 21.0701 21.3885 21.1289 21.3298 21.2072C20.6834 21.9515 19.7629 22.3236 18.7052 22.3334Z" fill="white"/>
</svg>
