<svg width="28" height="28" viewBox="0 0 28 28" fill="none" xmlns="http://www.w3.org/2000/svg">
<path d="M18.5035 23.4689C20.2173 23.4689 21.3827 22.9792 22.4404 21.8334C22.5089 21.7551 22.5775 21.667 22.646 21.5886C23.2238 20.9423 23.5078 20.2666 23.5078 19.6398C23.5078 18.9053 23.1161 18.2394 22.2445 17.642L19.3262 15.605C18.4056 14.9685 17.3382 14.9195 16.5156 15.7421L15.7909 16.4668C15.5362 16.7215 15.2914 16.741 14.9976 16.5354C14.4688 16.1828 13.4699 15.3015 12.7844 14.6159C12.0891 13.9206 11.384 13.1372 11.0021 12.5398C10.7964 12.2362 10.816 12.0012 11.0706 11.7466L11.7953 11.0219C12.6179 10.1993 12.5689 9.13182 11.9226 8.21127L9.84647 5.24397C9.26868 4.40176 8.57337 4.01004 7.83889 4.00024C7.21213 3.99045 6.5462 4.27445 5.89986 4.84245C5.82151 4.911 5.74317 4.97955 5.66482 5.0481C4.49945 6.11555 4 7.26134 4 9.04368C4 11.9326 5.67462 15.3406 8.93571 18.5821C12.1772 21.8041 15.546 23.4689 18.5035 23.4689ZM18.5035 21.8334C16.0063 21.8726 12.9019 20.1001 10.1794 17.3972C7.43737 14.6943 5.61586 11.4724 5.65503 8.97513C5.67462 7.92727 6.04675 7.00672 6.78123 6.36038C6.85958 6.30162 6.91834 6.25265 6.99668 6.19389C7.27089 5.95886 7.56468 5.83155 7.83889 5.83155C8.12289 5.83155 8.37751 5.94907 8.57337 6.24286L10.4047 8.99472C10.6397 9.32768 10.6495 9.70961 10.3067 10.0426L9.5233 10.8162C8.77902 11.5409 8.84757 12.3929 9.31764 13.0588C9.84647 13.7933 10.8356 14.9195 11.668 15.7421C12.5592 16.6235 13.7735 17.7106 14.4786 18.2198C15.1445 18.6899 15.9965 18.7584 16.7212 18.0141L17.4949 17.2307C17.818 16.8879 18.2 16.8977 18.5427 17.123L21.2456 18.9249C21.5492 19.1208 21.6569 19.3656 21.6569 19.6496C21.6569 19.9238 21.5296 20.2176 21.2946 20.5016C21.2358 20.5701 21.1869 20.6289 21.1281 20.7072C20.4818 21.4515 19.5612 21.8236 18.5035 21.8334Z" fill="#667185"/>
</svg>
