<svg width="29" height="29" viewBox="0 0 29 29" fill="none" xmlns="http://www.w3.org/2000/svg">
<path d="M4.54789 13.9077L9.43871 16.4032C9.53148 16.4504 9.63424 16.4733 9.73779 16.4699C9.84133 16.4665 9.94243 16.4368 10.032 16.3836L14.3854 13.7925L11.7504 16.1831C11.6841 16.2432 11.631 16.317 11.5947 16.3997C11.5583 16.4823 11.5395 16.5719 11.5395 16.6626V22.4855C11.5395 23.0998 12.3054 23.3583 12.6645 22.8703L14.7787 19.9925L20.007 23.0409C20.0929 23.0909 20.1892 23.1194 20.288 23.1239C20.3868 23.1284 20.4852 23.1089 20.5751 23.0669C20.6651 23.025 20.744 22.9617 20.8055 22.8825C20.8669 22.8032 20.9092 22.7101 20.9287 22.6109L24.1895 5.97404C24.2115 5.86146 24.2035 5.74488 24.1664 5.63653C24.1293 5.52818 24.0644 5.43206 23.9785 5.35824C23.8925 5.28443 23.7888 5.23564 23.6782 5.21699C23.5675 5.19834 23.454 5.21053 23.3495 5.25226L4.59956 12.7388C4.48681 12.7839 4.38926 12.8614 4.31874 12.9621C4.24822 13.0628 4.20777 13.1823 4.2023 13.3061C4.19683 13.4298 4.22657 13.5526 4.28792 13.6594C4.34927 13.7662 4.43958 13.8524 4.54789 13.9077ZM22.7395 6.86987L19.8737 21.4907L14.9195 18.6018C14.7873 18.5251 14.6323 18.5001 14.4834 18.5317C14.3346 18.5632 14.202 18.6491 14.1104 18.7733L12.7895 20.571V16.9501L19.9153 10.4865C20.4795 9.97542 19.8312 9.06679 19.187 9.45413L9.69537 15.1038L6.36872 13.4069L22.7395 6.86987Z" fill="white"/>
</svg>
