<svg width="28" height="28" viewBox="0 0 28 28" fill="none" xmlns="http://www.w3.org/2000/svg">
<path d="M4.34623 13.4077L9.23705 15.9032C9.32982 15.9504 9.43258 15.9733 9.53613 15.9699C9.63967 15.9665 9.74077 15.9368 9.83038 15.8836L14.1837 13.2925L11.5487 15.6831C11.4824 15.7432 11.4294 15.817 11.393 15.8997C11.3567 15.9823 11.3379 16.0719 11.3379 16.1626V21.9855C11.3379 22.5998 12.1037 22.8583 12.4629 22.3703L14.577 19.4925L19.8053 22.5409C19.8913 22.5909 19.9876 22.6194 20.0863 22.6239C20.1851 22.6284 20.2835 22.6089 20.3735 22.5669C20.4634 22.525 20.5424 22.4617 20.6038 22.3825C20.6653 22.3032 20.7075 22.2101 20.727 22.1109L23.9878 5.47404C24.0099 5.36146 24.0019 5.24488 23.9648 5.13653C23.9276 5.02818 23.8627 4.93206 23.7768 4.85824C23.6909 4.78443 23.5872 4.73564 23.4765 4.71699C23.3658 4.69834 23.2523 4.71053 23.1478 4.75226L4.3979 12.2388C4.28515 12.2839 4.1876 12.3614 4.11708 12.4621C4.04656 12.5628 4.00611 12.6823 4.00064 12.8061C3.99517 12.9298 4.02491 13.0526 4.08626 13.1594C4.14761 13.2662 4.23792 13.3524 4.34623 13.4077ZM22.5378 6.36987L19.672 20.9907L14.7179 18.1018C14.5856 18.0251 14.4306 18.0001 14.2818 18.0317C14.1329 18.0632 14.0003 18.1491 13.9087 18.2733L12.5879 20.071V16.4501L19.7137 9.98647C20.2778 9.47542 19.6295 8.56679 18.9853 8.95413L9.49371 14.6038L6.16706 12.9069L22.5378 6.36987Z" fill="#667185"/>
</svg>
