<svg width="41" height="50" viewBox="0 0 41 50" fill="none" xmlns="http://www.w3.org/2000/svg">
<path d="M0 43.5389C0 47.8005 2.20345 50 6.41363 50H24.8282C29.0384 50 31.2418 47.7808 31.2418 43.5389V39.9057H34.5864C38.7965 39.9057 41 37.6866 41 33.4446V6.48075C41 2.21917 38.7965 0 34.5864 0H16.1718C11.9616 0 9.75816 2.21917 9.75816 6.48075V10.0943H6.41363C2.20345 10.0943 0 12.3134 0 16.575V43.5389ZM19.3983 5.81304V5.36135C19.3983 4.77219 19.8311 4.10448 20.7361 4.10448H30.0024C30.9271 4.10448 31.3402 4.77219 31.3402 5.36135V5.81304C31.3402 6.46112 30.8877 7.05027 30.0024 7.05027H20.7361C19.8704 7.05027 19.3983 6.46112 19.3983 5.81304ZM3.91507 43.2836V16.8303C3.91507 15.0039 4.8594 14.022 6.74808 14.022H24.4741C26.3824 14.022 27.3268 15.0039 27.3268 16.8303V43.2836C27.3268 45.0903 26.3824 46.0919 24.4741 46.0919H6.74808C4.8594 46.0919 3.91507 45.0903 3.91507 43.2836ZM7.1809 30.0471C7.1809 30.8916 7.77111 31.5004 8.57773 31.5004H16.3685L19.7524 31.3629L17.8637 32.8947L15.9947 34.6819C15.7193 34.9175 15.5619 35.2514 15.5619 35.6441C15.5619 36.4297 16.1128 36.9992 16.88 36.9992C17.2735 36.9992 17.5883 36.8617 17.8637 36.6064L23.333 31.2058C23.6871 30.872 23.8839 30.5185 23.8839 30.0471C23.8839 29.6151 23.7068 29.2812 23.333 28.9081L17.8637 23.5075C17.5883 23.2325 17.2735 23.1147 16.88 23.1147C16.1128 23.1147 15.5619 23.6842 15.5619 24.4501C15.5619 24.8429 15.739 25.1964 15.9947 25.432L17.844 27.2192L19.7327 28.751L16.3685 28.6135H8.57773C7.77111 28.6135 7.1809 29.2223 7.1809 30.0471Z" fill="#FF3939"/>
</svg>
