<svg width="29" height="29" viewBox="0 0 29 29" fill="none" xmlns="http://www.w3.org/2000/svg">
<path d="M23.9973 16.142C24.6482 10.6629 23.6845 7.20382 21.9463 5.63928L21.9473 5.63837C19.1418 2.96655 9.66728 2.5711 6.31093 5.75837C4.80366 7.31745 4.27275 9.60563 4.21457 12.4384C4.15638 15.272 4.08729 20.5802 9.03365 22.0201H9.03819L9.03365 24.2192C9.03365 24.2192 9.00001 25.1101 9.5691 25.2892C10.22 25.5001 10.5146 25.0865 12.5391 22.6683C15.9245 22.962 18.5245 22.2892 18.82 22.1911C19.5036 21.962 23.3718 21.4501 23.9973 16.142ZM12.8727 21.1211C12.8727 21.1211 10.73 23.7929 10.0636 24.4865C9.84546 24.712 9.60637 24.6911 9.61001 24.2438C9.61001 23.9501 9.62637 20.5929 9.62637 20.5929C5.43275 19.3911 5.68002 14.8711 5.72547 12.5065C5.77093 10.1411 6.20365 8.20382 7.48001 6.89927C10.4246 4.13837 18.7309 4.75564 20.8473 6.74473C23.4345 9.03836 22.5136 15.5183 22.5191 15.7393C21.9873 20.1702 18.8527 20.4511 18.2764 20.6429C18.03 20.7247 15.7436 21.3129 12.8727 21.1211Z" fill="white"/>
<path d="M14.0579 7.41846C13.7079 7.41846 13.7079 7.96391 14.0579 7.96846C16.7734 7.98936 19.0097 9.88209 19.0343 13.3539C19.0343 13.7203 19.5706 13.7157 19.5661 13.3494C19.537 9.60845 17.0943 7.43937 14.0579 7.41846Z" fill="white"/>
<path d="M17.6301 12.7782C17.6219 13.14 18.1573 13.1573 18.1619 12.7909C18.2064 10.7282 16.9346 9.02913 14.5446 8.85004C14.1946 8.82458 14.1583 9.37458 14.5074 9.40004C16.5801 9.55731 17.6719 10.9719 17.6301 12.7782ZM17.0574 15.1246C16.6083 14.8646 16.151 15.0264 15.9619 15.2818L15.5664 15.7937C15.3655 16.0537 14.9901 16.0191 14.9901 16.0191C12.2501 15.2946 11.5174 12.4273 11.5174 12.4273C11.5174 12.4273 11.4837 12.0391 11.7346 11.8309L12.2292 11.4219C12.4765 11.2255 12.6328 10.7528 12.381 10.2882C11.7083 9.07276 11.2565 8.65367 11.0265 8.33186C10.7846 8.02913 10.421 7.96095 10.0428 8.16549H10.0346C9.24828 8.62549 8.38737 9.4864 8.66283 10.3728C9.13282 11.3073 9.99646 14.2864 12.7492 16.5373C14.0428 17.6018 16.0901 18.6927 16.9592 18.9446L16.9674 18.9573C17.8237 19.2427 18.6564 18.3482 19.101 17.5382V17.5318C19.2983 17.14 19.2328 16.7691 18.9446 16.5264C18.4337 16.0282 17.6628 15.4782 17.0574 15.1246Z" fill="white"/>
<path d="M14.9188 10.8792C15.7924 10.9301 16.216 11.3865 16.2615 12.3237C16.2779 12.6901 16.8097 12.6646 16.7933 12.2983C16.7351 11.0746 16.097 10.3928 14.9479 10.3292C14.5979 10.3083 14.5651 10.8583 14.9188 10.8792Z" fill="white"/>
</svg>
