<svg width="28" height="28" viewBox="0 0 28 28" fill="none" xmlns="http://www.w3.org/2000/svg">
<path d="M23.7956 15.642C24.4465 10.1629 23.4829 6.70382 21.7447 5.13928L21.7456 5.13837C18.9401 2.46655 9.46562 2.0711 6.10927 5.25837C4.602 6.81745 4.07109 9.10563 4.01291 11.9384C3.95472 14.772 3.88563 20.0802 8.83199 21.5201H8.83653L8.83199 23.7192C8.83199 23.7192 8.79835 24.6101 9.36744 24.7892C10.0183 25.0001 10.3129 24.5865 12.3374 22.1683C15.7229 22.462 18.3229 21.7892 18.6183 21.6911C19.302 21.462 23.1701 20.9501 23.7956 15.642ZM12.6711 20.6211C12.6711 20.6211 10.5283 23.2929 9.86198 23.9865C9.6438 24.212 9.40471 24.1911 9.40835 23.7438C9.40835 23.4501 9.42471 20.0929 9.42471 20.0929C5.23109 18.8911 5.47836 14.3711 5.52381 12.0065C5.56927 9.64108 6.00199 7.70382 7.27835 6.39927C10.2229 3.63837 18.5292 4.25564 20.6456 6.24473C23.2329 8.53836 22.312 15.0183 22.3174 15.2393C21.7856 19.6702 18.6511 19.9511 18.0747 20.1429C17.8283 20.2247 15.542 20.8129 12.6711 20.6211Z" fill="#667185"/>
<path d="M13.8562 6.91846C13.5063 6.91846 13.5063 7.46391 13.8562 7.46846C16.5717 7.48936 18.8081 9.38209 18.8326 12.8539C18.8326 13.2203 19.369 13.2157 19.3644 12.8494C19.3353 9.10845 16.8926 6.93937 13.8562 6.91846Z" fill="#667185"/>
<path d="M17.4284 12.2782C17.4202 12.64 17.9557 12.6573 17.9602 12.2909C18.0048 10.2282 16.733 8.52913 14.343 8.35004C13.993 8.32458 13.9566 8.87458 14.3057 8.90004C16.3784 9.05731 17.4702 10.4719 17.4284 12.2782ZM16.8557 14.6246C16.4066 14.3646 15.9493 14.5264 15.7602 14.7818L15.3648 15.2937C15.1639 15.5537 14.7884 15.5191 14.7884 15.5191C12.0484 14.7946 11.3157 11.9273 11.3157 11.9273C11.3157 11.9273 11.2821 11.5391 11.533 11.3309L12.0275 10.9219C12.2748 10.7255 12.4312 10.2528 12.1793 9.78822C11.5066 8.57276 11.0548 8.15367 10.8248 7.83186C10.583 7.52913 10.2193 7.46095 9.84116 7.66549H9.83298C9.04662 8.12549 8.18571 8.9864 8.46117 9.87276C8.93116 10.8073 9.7948 13.7864 12.5475 16.0373C13.8412 17.1018 15.8884 18.1927 16.7575 18.4446L16.7657 18.4573C17.6221 18.7427 18.4548 17.8482 18.8993 17.0382V17.0318C19.0966 16.64 19.0311 16.2691 18.743 16.0264C18.2321 15.5282 17.4611 14.9782 16.8557 14.6246Z" fill="#667185"/>
<path d="M14.7171 10.3792C15.5907 10.4301 16.0144 10.8865 16.0598 11.8237C16.0762 12.1901 16.608 12.1646 16.5917 11.7983C16.5335 10.5746 15.8953 9.89283 14.7462 9.82919C14.3962 9.80829 14.3635 10.3583 14.7171 10.3792Z" fill="#667185"/>
</svg>
